%TF.GenerationSoftware,Altium Limited,Altium Designer,21.3.2 (30)*%
G04 Layer_Physical_Order=2*
G04 Layer_Color=16711680*
%FSLAX26Y26*%
%MOIN*%
%TF.SameCoordinates,7249F2FC-C291-4BAF-AEBD-B68F3D0C2602*%
%TF.FilePolarity,Positive*%
%TF.FileFunction,Copper,L2,Bot,Signal*%
%TF.Part,Single*%
G01*
G75*
%TA.AperFunction,Conductor*%
%ADD18C,0.012000*%
%TA.AperFunction,ViaPad*%
%ADD20C,0.150000*%
%ADD21C,0.020000*%
G36*
X4235000Y2589000D02*
X3493000D01*
Y3440000D01*
X4235000D01*
X4235000Y2589000D01*
D02*
G37*
%LPC*%
G36*
X3767984Y3243000D02*
X3762016D01*
X3756503Y3240716D01*
X3755502Y3239715D01*
X3663498D01*
X3662969Y3240244D01*
X3657456Y3242528D01*
X3651489D01*
X3645976Y3240244D01*
X3641756Y3236024D01*
X3639472Y3230511D01*
Y3224544D01*
X3641756Y3219031D01*
X3645976Y3214811D01*
X3651489Y3212528D01*
X3657456D01*
X3662969Y3214811D01*
X3665443Y3217285D01*
X3754502D01*
X3756503Y3215284D01*
X3762016Y3213000D01*
X3767984D01*
X3773497Y3215284D01*
X3777716Y3219503D01*
X3780000Y3225016D01*
Y3230984D01*
X3777716Y3236497D01*
X3773497Y3240716D01*
X3767984Y3243000D01*
D02*
G37*
G36*
Y3195000D02*
X3762016D01*
X3756503Y3192716D01*
X3752284Y3188497D01*
X3750000Y3182984D01*
Y3180861D01*
X3728069Y3158931D01*
X3725638Y3155292D01*
X3724784Y3151000D01*
X3724785Y3150999D01*
Y3120903D01*
X3723284Y3119402D01*
X3721000Y3113889D01*
Y3107922D01*
X3723284Y3102409D01*
X3726315Y3099377D01*
Y3054471D01*
X3726315Y3054470D01*
X3727169Y3050178D01*
X3729600Y3046540D01*
X3746653Y3029487D01*
X3746653Y3029487D01*
X3750292Y3027055D01*
X3754584Y3026202D01*
X3769215D01*
X3770716Y3024701D01*
X3776229Y3022417D01*
X3782196D01*
X3787709Y3024701D01*
X3791929Y3028921D01*
X3794213Y3034434D01*
Y3040401D01*
X3791929Y3045914D01*
X3787709Y3050134D01*
X3782196Y3052417D01*
X3776229D01*
X3770716Y3050134D01*
X3769215Y3048633D01*
X3759229D01*
X3748746Y3059116D01*
Y3102481D01*
X3751000Y3107922D01*
Y3113889D01*
X3748716Y3119402D01*
X3747215Y3120903D01*
Y3146354D01*
X3765861Y3165000D01*
X3767984D01*
X3773497Y3167284D01*
X3777716Y3171503D01*
X3780000Y3177016D01*
Y3182984D01*
X3777716Y3188497D01*
X3773497Y3192716D01*
X3767984Y3195000D01*
D02*
G37*
G36*
X3836984Y3015000D02*
X3831016D01*
X3825503Y3012716D01*
X3821284Y3008497D01*
X3819000Y3002984D01*
Y2997016D01*
X3821284Y2991503D01*
X3825503Y2987284D01*
X3830944Y2985030D01*
X3840785Y2975190D01*
Y2878998D01*
X3839284Y2877497D01*
X3837000Y2871984D01*
Y2866016D01*
X3839284Y2860503D01*
X3843503Y2856284D01*
X3849016Y2854000D01*
X3854984D01*
X3860497Y2856284D01*
X3864716Y2860503D01*
X3867000Y2866016D01*
Y2871984D01*
X3864716Y2877497D01*
X3863215Y2878998D01*
Y2979835D01*
X3862362Y2984127D01*
X3859931Y2987766D01*
X3859930Y2987766D01*
X3849000Y2998696D01*
Y3002984D01*
X3846716Y3008497D01*
X3842497Y3012716D01*
X3836984Y3015000D01*
D02*
G37*
G36*
X3940000Y3041215D02*
X3935708Y3040362D01*
X3935473Y3040205D01*
X3934316D01*
X3928802Y3037921D01*
X3924583Y3033702D01*
X3922299Y3028188D01*
Y3028160D01*
X3900069Y3005931D01*
X3897638Y3002292D01*
X3896784Y2998000D01*
X3896785Y2997999D01*
Y2856998D01*
X3896284Y2856497D01*
X3894000Y2850984D01*
Y2845016D01*
X3896284Y2839503D01*
X3900503Y2835284D01*
X3906016Y2833000D01*
X3911984D01*
X3917497Y2835284D01*
X3921716Y2839503D01*
X3924000Y2845016D01*
Y2850984D01*
X3921716Y2856497D01*
X3919215Y2858998D01*
Y2993354D01*
X3936066Y3010205D01*
X3940283D01*
X3945796Y3012488D01*
X3950016Y3016708D01*
X3952299Y3022221D01*
Y3028188D01*
X3950908Y3031548D01*
X3950362Y3034292D01*
X3947930Y3037930D01*
X3944292Y3040362D01*
X3940000Y3041215D01*
D02*
G37*
G36*
X3841984Y2826000D02*
X3836016D01*
X3830503Y2823716D01*
X3827502Y2820715D01*
X3636498D01*
X3636497Y2820716D01*
X3630984Y2823000D01*
X3625016D01*
X3619503Y2820716D01*
X3615284Y2816497D01*
X3613000Y2810984D01*
Y2805016D01*
X3615284Y2799503D01*
X3619503Y2795284D01*
X3625016Y2793000D01*
X3630984D01*
X3636497Y2795284D01*
X3639498Y2798285D01*
X3830502D01*
X3830503Y2798284D01*
X3836016Y2796000D01*
X3841984D01*
X3847497Y2798284D01*
X3851716Y2802503D01*
X3854000Y2808016D01*
Y2813984D01*
X3851716Y2819497D01*
X3847497Y2823716D01*
X3841984Y2826000D01*
D02*
G37*
G36*
X3967042Y2970956D02*
X3962750Y2970102D01*
X3962515Y2969945D01*
X3961358D01*
X3955845Y2967661D01*
X3951625Y2963442D01*
X3949342Y2957929D01*
Y2951961D01*
X3951625Y2946448D01*
X3955827Y2942246D01*
Y2839688D01*
X3943139Y2827000D01*
X3941016D01*
X3935503Y2824716D01*
X3931284Y2820497D01*
X3929000Y2814984D01*
Y2809016D01*
X3931284Y2803503D01*
X3935503Y2799284D01*
X3941016Y2797000D01*
X3946984D01*
X3952497Y2799284D01*
X3956716Y2803503D01*
X3959000Y2809016D01*
Y2811139D01*
X3974973Y2827112D01*
X3974973Y2827112D01*
X3977404Y2830750D01*
X3978258Y2835042D01*
X3978258Y2835043D01*
Y2949345D01*
X3979342Y2951961D01*
Y2957929D01*
X3977950Y2961288D01*
X3977404Y2964032D01*
X3974973Y2967671D01*
X3971334Y2970102D01*
X3967042Y2970956D01*
D02*
G37*
G36*
X3601984Y2893000D02*
X3596016D01*
X3590503Y2890716D01*
X3586284Y2886497D01*
X3584000Y2880984D01*
Y2876696D01*
X3581069Y2873766D01*
X3578638Y2870127D01*
X3577784Y2865835D01*
X3577785Y2865835D01*
Y2786998D01*
X3576284Y2785497D01*
X3574000Y2779984D01*
Y2774016D01*
X3576284Y2768503D01*
X3580503Y2764284D01*
X3586016Y2762000D01*
X3591984D01*
X3597497Y2764284D01*
X3601716Y2768503D01*
X3604000Y2774016D01*
Y2779984D01*
X3601716Y2785497D01*
X3600215Y2786998D01*
Y2861189D01*
X3602056Y2863030D01*
X3607497Y2865284D01*
X3611716Y2869503D01*
X3614000Y2875016D01*
Y2880984D01*
X3611716Y2886497D01*
X3607497Y2890716D01*
X3601984Y2893000D01*
D02*
G37*
%LPD*%
D18*
X3654472Y3227528D02*
X3655445Y3228500D01*
X3908000Y2849000D02*
X3909000Y2848000D01*
X3834000Y2997835D02*
X3852000Y2979835D01*
X3908000Y2849000D02*
Y2998000D01*
X3852000Y2869000D02*
Y2979835D01*
X3628000Y2808000D02*
X3629500Y2809500D01*
X3837500D01*
X3839000Y2811000D01*
X3589000Y2865835D02*
X3599000Y2875835D01*
X3589000Y2777000D02*
Y2865835D01*
X3599000Y2875835D02*
Y2878000D01*
X3737531Y3054470D02*
Y3103469D01*
X3754584Y3037417D02*
X3779213D01*
X3737531Y3054470D02*
X3754584Y3037417D01*
X3736000Y3105000D02*
X3737531Y3103469D01*
X3736000Y3151000D02*
X3765000Y3180000D01*
X3736000Y3105000D02*
Y3151000D01*
X3944000Y2812000D02*
X3967042Y2835042D01*
X3908000Y2998000D02*
X3940000Y3030000D01*
X3967042Y2835042D02*
Y2959740D01*
X3655445Y3228500D02*
X3764500D01*
X3765000Y3228000D01*
X3834000Y2997835D02*
Y3000000D01*
D20*
X4130000Y3350000D02*
D03*
Y2680000D02*
D03*
X3580000D02*
D03*
Y3350000D02*
D03*
D21*
X4160000Y3120000D02*
D03*
X4200000Y3040000D02*
D03*
X4160000Y2960000D02*
D03*
X4200000Y2880000D02*
D03*
X4120000Y3040000D02*
D03*
X4080000Y2960000D02*
D03*
X4120000Y2880000D02*
D03*
X4080000Y2800000D02*
D03*
X4040000Y3360000D02*
D03*
X4000000Y3280000D02*
D03*
Y2800000D02*
D03*
X4040000Y2720000D02*
D03*
X4000000Y2640000D02*
D03*
X3960000Y3360000D02*
D03*
X3920000Y3280000D02*
D03*
Y3120000D02*
D03*
X3960000Y2720000D02*
D03*
X3920000Y2640000D02*
D03*
X3880000Y3360000D02*
D03*
X3840000Y3280000D02*
D03*
X3880000Y2720000D02*
D03*
X3840000Y2640000D02*
D03*
X3800000Y3360000D02*
D03*
X3760000Y3280000D02*
D03*
X3800000Y2720000D02*
D03*
X3760000Y2640000D02*
D03*
X3720000Y3360000D02*
D03*
X3680000Y3280000D02*
D03*
X3720000Y3040000D02*
D03*
Y2720000D02*
D03*
X3680000Y2640000D02*
D03*
X3640000Y3040000D02*
D03*
X3520000Y3280000D02*
D03*
X3560000Y3200000D02*
D03*
X3520000Y3120000D02*
D03*
Y2960000D02*
D03*
X3560000Y2880000D02*
D03*
X3520000Y2800000D02*
D03*
X3555000Y2827000D02*
D03*
X3871000Y2793000D02*
D03*
X3772000Y2786000D02*
D03*
X3675000Y2787000D02*
D03*
X3964342Y2954945D02*
D03*
X3937299Y3025205D02*
D03*
X3852000Y2869000D02*
D03*
X3909000Y2848000D02*
D03*
X3939000D02*
D03*
X3628000Y2808000D02*
D03*
X3599000Y2878000D02*
D03*
X3589000Y2777000D02*
D03*
X3735000Y3200000D02*
D03*
X3779213Y3037417D02*
D03*
X3736000Y3110905D02*
D03*
X3839000Y2811000D02*
D03*
X3944000Y2812000D02*
D03*
X3765000Y3180000D02*
D03*
Y3228000D02*
D03*
X3654472Y3227528D02*
D03*
X3834000Y3000000D02*
D03*
X3769370Y2964370D02*
D03*
Y2925000D02*
D03*
Y2885630D02*
D03*
X3730000Y2964370D02*
D03*
Y2925000D02*
D03*
Y2885630D02*
D03*
X3690630Y2964370D02*
D03*
Y2925000D02*
D03*
Y2885630D02*
D03*
%TF.MD5,afc69336c2eecb7ce217ab6aa9aacb75*%
M02*
