%TF.GenerationSoftware,Altium Limited,Altium Designer,21.3.2 (30)*%
G04 Layer_Color=32768*
%FSLAX26Y26*%
%MOIN*%
%TF.SameCoordinates,7249F2FC-C291-4BAF-AEBD-B68F3D0C2602*%
%TF.FilePolarity,Positive*%
%TF.FileFunction,Other,Mechanical_15*%
%TF.Part,Single*%
G01*
G75*
%TA.AperFunction,NonConductor*%
%ADD26C,0.003937*%
%ADD27C,0.010000*%
%ADD37C,0.001968*%
D26*
X3946630Y2792921D02*
X4223717D01*
Y3257488D01*
X3946630D02*
X4223717D01*
X3946630Y2792921D02*
Y3257488D01*
X3849685Y3155000D02*
X3850000D01*
X3810315D02*
X3850000D01*
X3830000Y3135315D02*
Y3174685D01*
X3710315Y2925000D02*
X3749685D01*
X3730000Y2905315D02*
Y2944685D01*
D27*
X3493000Y2589000D02*
Y3440000D01*
X4235000Y2589000D02*
Y3440000D01*
X3493000Y2589000D02*
X4235000D01*
X3493000Y3440000D02*
X4235000D01*
D37*
X3761102Y3257362D02*
X3898898D01*
X3761102Y3052638D02*
Y3257362D01*
Y3052638D02*
X3898898D01*
Y3257362D01*
X3631575Y2826575D02*
Y3023425D01*
Y2826575D02*
X3828425D01*
X3631575Y3023425D02*
X3828425D01*
Y2826575D02*
Y3023425D01*
%TF.MD5,5b8f7f639d339db4b84acddf1cc32f15*%
M02*
