%TF.GenerationSoftware,Altium Limited,Altium Designer,21.3.2 (30)*%
G04 Layer_Color=2752767*
%FSLAX26Y26*%
%MOIN*%
%TF.SameCoordinates,7249F2FC-C291-4BAF-AEBD-B68F3D0C2602*%
%TF.FilePolarity,Positive*%
%TF.FileFunction,Drawing*%
%TF.Part,Single*%
G01*
G75*
%TA.AperFunction,NonConductor*%
%ADD45C,0.005000*%
%ADD46C,0.006667*%
D45*
X4110000Y3330000D02*
Y3370000D01*
X4150000D01*
Y3330000D01*
X4110000D01*
Y2660000D02*
Y2700000D01*
X4150000D01*
Y2660000D01*
X4110000D01*
X3560000D02*
Y2700000D01*
X3600000D01*
Y2660000D01*
X3560000D01*
Y3330000D02*
Y3370000D01*
X3600000D01*
Y3330000D01*
X3560000D01*
D46*
X4180000Y3120000D02*
G03*
X4180000Y3120000I-20000J0D01*
G01*
X4220000Y3040000D02*
G03*
X4220000Y3040000I-20000J0D01*
G01*
X4180000Y2960000D02*
G03*
X4180000Y2960000I-20000J0D01*
G01*
X4220000Y2880000D02*
G03*
X4220000Y2880000I-20000J0D01*
G01*
X4140000Y3040000D02*
G03*
X4140000Y3040000I-20000J0D01*
G01*
X4100000Y2960000D02*
G03*
X4100000Y2960000I-20000J0D01*
G01*
X4140000Y2880000D02*
G03*
X4140000Y2880000I-20000J0D01*
G01*
X4100000Y2800000D02*
G03*
X4100000Y2800000I-20000J0D01*
G01*
X4060000Y3360000D02*
G03*
X4060000Y3360000I-20000J0D01*
G01*
X4020000Y3280000D02*
G03*
X4020000Y3280000I-20000J0D01*
G01*
Y2800000D02*
G03*
X4020000Y2800000I-20000J0D01*
G01*
X4060000Y2720000D02*
G03*
X4060000Y2720000I-20000J0D01*
G01*
X4020000Y2640000D02*
G03*
X4020000Y2640000I-20000J0D01*
G01*
X3980000Y3360000D02*
G03*
X3980000Y3360000I-20000J0D01*
G01*
X3940000Y3280000D02*
G03*
X3940000Y3280000I-20000J0D01*
G01*
Y3120000D02*
G03*
X3940000Y3120000I-20000J0D01*
G01*
X3980000Y2720000D02*
G03*
X3980000Y2720000I-20000J0D01*
G01*
X3940000Y2640000D02*
G03*
X3940000Y2640000I-20000J0D01*
G01*
X3900000Y3360000D02*
G03*
X3900000Y3360000I-20000J0D01*
G01*
X3860000Y3280000D02*
G03*
X3860000Y3280000I-20000J0D01*
G01*
X3900000Y2720000D02*
G03*
X3900000Y2720000I-20000J0D01*
G01*
X3860000Y2640000D02*
G03*
X3860000Y2640000I-20000J0D01*
G01*
X3820000Y3360000D02*
G03*
X3820000Y3360000I-20000J0D01*
G01*
X3780000Y3280000D02*
G03*
X3780000Y3280000I-20000J0D01*
G01*
X3820000Y2720000D02*
G03*
X3820000Y2720000I-20000J0D01*
G01*
X3780000Y2640000D02*
G03*
X3780000Y2640000I-20000J0D01*
G01*
X3740000Y3360000D02*
G03*
X3740000Y3360000I-20000J0D01*
G01*
X3700000Y3280000D02*
G03*
X3700000Y3280000I-20000J0D01*
G01*
X3740000Y3040000D02*
G03*
X3740000Y3040000I-20000J0D01*
G01*
Y2720000D02*
G03*
X3740000Y2720000I-20000J0D01*
G01*
X3700000Y2640000D02*
G03*
X3700000Y2640000I-20000J0D01*
G01*
X3660000Y3040000D02*
G03*
X3660000Y3040000I-20000J0D01*
G01*
X3540000Y3280000D02*
G03*
X3540000Y3280000I-20000J0D01*
G01*
X3580000Y3200000D02*
G03*
X3580000Y3200000I-20000J0D01*
G01*
X3540000Y3120000D02*
G03*
X3540000Y3120000I-20000J0D01*
G01*
Y2960000D02*
G03*
X3540000Y2960000I-20000J0D01*
G01*
X3580000Y2880000D02*
G03*
X3580000Y2880000I-20000J0D01*
G01*
X3540000Y2800000D02*
G03*
X3540000Y2800000I-20000J0D01*
G01*
X3575000Y2827000D02*
G03*
X3575000Y2827000I-20000J0D01*
G01*
X3891000Y2793000D02*
G03*
X3891000Y2793000I-20000J0D01*
G01*
X3792000Y2786000D02*
G03*
X3792000Y2786000I-20000J0D01*
G01*
X3695000Y2787000D02*
G03*
X3695000Y2787000I-20000J0D01*
G01*
X3984342Y2954945D02*
G03*
X3984342Y2954945I-20000J0D01*
G01*
X3957299Y3025205D02*
G03*
X3957299Y3025205I-20000J0D01*
G01*
X3872000Y2869000D02*
G03*
X3872000Y2869000I-20000J0D01*
G01*
X3929000Y2848000D02*
G03*
X3929000Y2848000I-20000J0D01*
G01*
X3959000D02*
G03*
X3959000Y2848000I-20000J0D01*
G01*
X3648000Y2808000D02*
G03*
X3648000Y2808000I-20000J0D01*
G01*
X3619000Y2878000D02*
G03*
X3619000Y2878000I-20000J0D01*
G01*
X3609000Y2777000D02*
G03*
X3609000Y2777000I-20000J0D01*
G01*
X3755000Y3200000D02*
G03*
X3755000Y3200000I-20000J0D01*
G01*
X3799213Y3037417D02*
G03*
X3799213Y3037417I-20000J0D01*
G01*
X3756000Y3110905D02*
G03*
X3756000Y3110905I-20000J0D01*
G01*
X3859000Y2811000D02*
G03*
X3859000Y2811000I-20000J0D01*
G01*
X3964000Y2812000D02*
G03*
X3964000Y2812000I-20000J0D01*
G01*
X3785000Y3180000D02*
G03*
X3785000Y3180000I-20000J0D01*
G01*
Y3228000D02*
G03*
X3785000Y3228000I-20000J0D01*
G01*
X3674472Y3227528D02*
G03*
X3674472Y3227528I-20000J0D01*
G01*
X3854000Y3000000D02*
G03*
X3854000Y3000000I-20000J0D01*
G01*
X3789370Y2964370D02*
G03*
X3789370Y2964370I-20000J0D01*
G01*
Y2925000D02*
G03*
X3789370Y2925000I-20000J0D01*
G01*
Y2885630D02*
G03*
X3789370Y2885630I-20000J0D01*
G01*
X3750000Y2964370D02*
G03*
X3750000Y2964370I-20000J0D01*
G01*
Y2925000D02*
G03*
X3750000Y2925000I-20000J0D01*
G01*
Y2885630D02*
G03*
X3750000Y2885630I-20000J0D01*
G01*
X3710630Y2964370D02*
G03*
X3710630Y2964370I-20000J0D01*
G01*
Y2925000D02*
G03*
X3710630Y2925000I-20000J0D01*
G01*
Y2885630D02*
G03*
X3710630Y2885630I-20000J0D01*
G01*
%TF.MD5,612f2ec3de6228f4e66cb57a61f851e8*%
M02*
