%TF.GenerationSoftware,Altium Limited,Altium Designer,21.3.2 (30)*%
G04 Layer_Color=8421504*
%FSLAX26Y26*%
%MOIN*%
%TF.SameCoordinates,7249F2FC-C291-4BAF-AEBD-B68F3D0C2602*%
%TF.FilePolarity,Positive*%
%TF.FileFunction,Paste,Top*%
%TF.Part,Single*%
G01*
G75*
%TA.AperFunction,SMDPad,CuDef*%
%ADD10R,0.070866X0.047244*%
%ADD11R,0.061024X0.023622*%
%ADD12R,0.051181X0.039370*%
%ADD13R,0.039370X0.051181*%
%ADD14R,0.043307X0.023622*%
%ADD15R,0.102362X0.106299*%
%ADD16R,0.033465X0.013780*%
%ADD17R,0.013780X0.031496*%
D10*
X4168598Y3214181D02*
D03*
Y2836228D02*
D03*
D11*
X4016000Y3163000D02*
D03*
Y3123630D02*
D03*
Y3084260D02*
D03*
Y3044890D02*
D03*
Y3005520D02*
D03*
Y2966150D02*
D03*
Y2926780D02*
D03*
Y2887409D02*
D03*
D12*
X3890000Y2950000D02*
D03*
X3890394Y3020472D02*
D03*
X3652606Y3158528D02*
D03*
X3653000Y3229000D02*
D03*
X3565000Y2945000D02*
D03*
X3565394Y3015472D02*
D03*
D13*
X3630000Y3090905D02*
D03*
X3700472Y3090512D02*
D03*
D14*
X3786693Y3228819D02*
D03*
X3873307D02*
D03*
Y3179606D02*
D03*
X3786693D02*
D03*
Y3130394D02*
D03*
X3873307D02*
D03*
X3786693Y3081181D02*
D03*
X3873307D02*
D03*
D15*
X3730000Y2925000D02*
D03*
D16*
X3652244Y2875787D02*
D03*
Y2895472D02*
D03*
Y2915157D02*
D03*
Y2934843D02*
D03*
Y2954528D02*
D03*
Y2974213D02*
D03*
X3807756D02*
D03*
Y2954528D02*
D03*
Y2934843D02*
D03*
Y2915157D02*
D03*
Y2895472D02*
D03*
Y2875787D02*
D03*
D17*
X3680787Y3003740D02*
D03*
X3700472D02*
D03*
X3720157D02*
D03*
X3739843D02*
D03*
X3759528D02*
D03*
X3779213D02*
D03*
Y2846260D02*
D03*
X3759528D02*
D03*
X3739843D02*
D03*
X3720157D02*
D03*
X3700472D02*
D03*
X3680787D02*
D03*
%TF.MD5,aba7bbcca7993a0eb58484f6c7b19290*%
M02*
