%TF.GenerationSoftware,Altium Limited,Altium Designer,21.3.2 (30)*%
G04 Layer_Color=128*
%FSLAX26Y26*%
%MOIN*%
%TF.SameCoordinates,7249F2FC-C291-4BAF-AEBD-B68F3D0C2602*%
%TF.FilePolarity,Positive*%
%TF.FileFunction,Drillmap*%
%TF.Part,Single*%
G01*
G75*
%TA.AperFunction,NonConductor*%
%ADD45C,0.005000*%
D45*
X4085000Y3350000D02*
X4175000D01*
X4130000Y3305000D02*
Y3395000D01*
X4085000Y2680000D02*
X4175000D01*
X4130000Y2635000D02*
Y2725000D01*
X3535000Y2680000D02*
X3625000D01*
X3580000Y2635000D02*
Y2725000D01*
X3535000Y3350000D02*
X3625000D01*
X3580000Y3305000D02*
Y3395000D01*
X4154000Y3120000D02*
X4166000D01*
X4160000Y3114000D02*
Y3126000D01*
X4194000Y3040000D02*
X4206000D01*
X4200000Y3034000D02*
Y3046000D01*
X4154000Y2960000D02*
X4166000D01*
X4160000Y2954000D02*
Y2966000D01*
X4194000Y2880000D02*
X4206000D01*
X4200000Y2874000D02*
Y2886000D01*
X4114000Y3040000D02*
X4126000D01*
X4120000Y3034000D02*
Y3046000D01*
X4074000Y2960000D02*
X4086000D01*
X4080000Y2954000D02*
Y2966000D01*
X4114000Y2880000D02*
X4126000D01*
X4120000Y2874000D02*
Y2886000D01*
X4074000Y2800000D02*
X4086000D01*
X4080000Y2794000D02*
Y2806000D01*
X4034000Y3360000D02*
X4046000D01*
X4040000Y3354000D02*
Y3366000D01*
X3994000Y3280000D02*
X4006000D01*
X4000000Y3274000D02*
Y3286000D01*
X3994000Y2800000D02*
X4006000D01*
X4000000Y2794000D02*
Y2806000D01*
X4034000Y2720000D02*
X4046000D01*
X4040000Y2714000D02*
Y2726000D01*
X3994000Y2640000D02*
X4006000D01*
X4000000Y2634000D02*
Y2646000D01*
X3954000Y3360000D02*
X3966000D01*
X3960000Y3354000D02*
Y3366000D01*
X3914000Y3280000D02*
X3926000D01*
X3920000Y3274000D02*
Y3286000D01*
X3914000Y3120000D02*
X3926000D01*
X3920000Y3114000D02*
Y3126000D01*
X3954000Y2720000D02*
X3966000D01*
X3960000Y2714000D02*
Y2726000D01*
X3914000Y2640000D02*
X3926000D01*
X3920000Y2634000D02*
Y2646000D01*
X3874000Y3360000D02*
X3886000D01*
X3880000Y3354000D02*
Y3366000D01*
X3834000Y3280000D02*
X3846000D01*
X3840000Y3274000D02*
Y3286000D01*
X3874000Y2720000D02*
X3886000D01*
X3880000Y2714000D02*
Y2726000D01*
X3834000Y2640000D02*
X3846000D01*
X3840000Y2634000D02*
Y2646000D01*
X3794000Y3360000D02*
X3806000D01*
X3800000Y3354000D02*
Y3366000D01*
X3754000Y3280000D02*
X3766000D01*
X3760000Y3274000D02*
Y3286000D01*
X3794000Y2720000D02*
X3806000D01*
X3800000Y2714000D02*
Y2726000D01*
X3754000Y2640000D02*
X3766000D01*
X3760000Y2634000D02*
Y2646000D01*
X3714000Y3360000D02*
X3726000D01*
X3720000Y3354000D02*
Y3366000D01*
X3674000Y3280000D02*
X3686000D01*
X3680000Y3274000D02*
Y3286000D01*
X3714000Y3040000D02*
X3726000D01*
X3720000Y3034000D02*
Y3046000D01*
X3714000Y2720000D02*
X3726000D01*
X3720000Y2714000D02*
Y2726000D01*
X3674000Y2640000D02*
X3686000D01*
X3680000Y2634000D02*
Y2646000D01*
X3634000Y3040000D02*
X3646000D01*
X3640000Y3034000D02*
Y3046000D01*
X3514000Y3280000D02*
X3526000D01*
X3520000Y3274000D02*
Y3286000D01*
X3554000Y3200000D02*
X3566000D01*
X3560000Y3194000D02*
Y3206000D01*
X3514000Y3120000D02*
X3526000D01*
X3520000Y3114000D02*
Y3126000D01*
X3514000Y2960000D02*
X3526000D01*
X3520000Y2954000D02*
Y2966000D01*
X3554000Y2880000D02*
X3566000D01*
X3560000Y2874000D02*
Y2886000D01*
X3514000Y2800000D02*
X3526000D01*
X3520000Y2794000D02*
Y2806000D01*
X3549000Y2827000D02*
X3561000D01*
X3555000Y2821000D02*
Y2833000D01*
X3865000Y2793000D02*
X3877000D01*
X3871000Y2787000D02*
Y2799000D01*
X3766000Y2786000D02*
X3778000D01*
X3772000Y2780000D02*
Y2792000D01*
X3669000Y2787000D02*
X3681000D01*
X3675000Y2781000D02*
Y2793000D01*
X3958342Y2954945D02*
X3970342D01*
X3964342Y2948945D02*
Y2960945D01*
X3931299Y3025205D02*
X3943299D01*
X3937299Y3019205D02*
Y3031205D01*
X3846000Y2869000D02*
X3858000D01*
X3852000Y2863000D02*
Y2875000D01*
X3903000Y2848000D02*
X3915000D01*
X3909000Y2842000D02*
Y2854000D01*
X3933000Y2848000D02*
X3945000D01*
X3939000Y2842000D02*
Y2854000D01*
X3622000Y2808000D02*
X3634000D01*
X3628000Y2802000D02*
Y2814000D01*
X3593000Y2878000D02*
X3605000D01*
X3599000Y2872000D02*
Y2884000D01*
X3583000Y2777000D02*
X3595000D01*
X3589000Y2771000D02*
Y2783000D01*
X3729000Y3200000D02*
X3741000D01*
X3735000Y3194000D02*
Y3206000D01*
X3773213Y3037417D02*
X3785213D01*
X3779213Y3031417D02*
Y3043417D01*
X3730000Y3110905D02*
X3742000D01*
X3736000Y3104905D02*
Y3116905D01*
X3833000Y2811000D02*
X3845000D01*
X3839000Y2805000D02*
Y2817000D01*
X3938000Y2812000D02*
X3950000D01*
X3944000Y2806000D02*
Y2818000D01*
X3759000Y3180000D02*
X3771000D01*
X3765000Y3174000D02*
Y3186000D01*
X3759000Y3228000D02*
X3771000D01*
X3765000Y3222000D02*
Y3234000D01*
X3648472Y3227528D02*
X3660472D01*
X3654472Y3221528D02*
Y3233528D01*
X3828000Y3000000D02*
X3840000D01*
X3834000Y2994000D02*
Y3006000D01*
X3763370Y2964370D02*
X3775370D01*
X3769370Y2958370D02*
Y2970370D01*
X3763370Y2925000D02*
X3775370D01*
X3769370Y2919000D02*
Y2931000D01*
X3763370Y2885630D02*
X3775370D01*
X3769370Y2879630D02*
Y2891630D01*
X3724000Y2964370D02*
X3736000D01*
X3730000Y2958370D02*
Y2970370D01*
X3724000Y2925000D02*
X3736000D01*
X3730000Y2919000D02*
Y2931000D01*
X3724000Y2885630D02*
X3736000D01*
X3730000Y2879630D02*
Y2891630D01*
X3684630Y2964370D02*
X3696630D01*
X3690630Y2958370D02*
Y2970370D01*
X3684630Y2925000D02*
X3696630D01*
X3690630Y2919000D02*
Y2931000D01*
X3684630Y2885630D02*
X3696630D01*
X3690630Y2879630D02*
Y2891630D01*
%TF.MD5,37608ee62067122f40d292f6d0594a50*%
M02*
