%TF.GenerationSoftware,Altium Limited,Altium Designer,21.3.2 (30)*%
G04 Layer_Color=8388736*
%FSLAX26Y26*%
%MOIN*%
%TF.SameCoordinates,7249F2FC-C291-4BAF-AEBD-B68F3D0C2602*%
%TF.FilePolarity,Negative*%
%TF.FileFunction,Soldermask,Top*%
%TF.Part,Single*%
G01*
G75*
%TA.AperFunction,ViaPad*%
%ADD22C,0.158000*%
%ADD23C,0.028000*%
%TA.AperFunction,SMDPad,CuDef*%
%ADD28R,0.078866X0.055244*%
%ADD29R,0.069024X0.031622*%
%ADD30R,0.059181X0.047370*%
%ADD31R,0.047370X0.059181*%
%ADD32R,0.051307X0.031622*%
%ADD33R,0.110362X0.114299*%
%ADD34R,0.041465X0.021779*%
%ADD35R,0.021779X0.039496*%
D22*
X4130000Y3350000D02*
D03*
Y2680000D02*
D03*
X3580000D02*
D03*
Y3350000D02*
D03*
D23*
X4160000Y3120000D02*
D03*
X4200000Y3040000D02*
D03*
X4160000Y2960000D02*
D03*
X4200000Y2880000D02*
D03*
X4120000Y3040000D02*
D03*
X4080000Y2960000D02*
D03*
X4120000Y2880000D02*
D03*
X4080000Y2800000D02*
D03*
X4040000Y3360000D02*
D03*
X4000000Y3280000D02*
D03*
Y2800000D02*
D03*
X4040000Y2720000D02*
D03*
X4000000Y2640000D02*
D03*
X3960000Y3360000D02*
D03*
X3920000Y3280000D02*
D03*
Y3120000D02*
D03*
X3960000Y2720000D02*
D03*
X3920000Y2640000D02*
D03*
X3880000Y3360000D02*
D03*
X3840000Y3280000D02*
D03*
X3880000Y2720000D02*
D03*
X3840000Y2640000D02*
D03*
X3800000Y3360000D02*
D03*
X3760000Y3280000D02*
D03*
X3800000Y2720000D02*
D03*
X3760000Y2640000D02*
D03*
X3720000Y3360000D02*
D03*
X3680000Y3280000D02*
D03*
X3720000Y3040000D02*
D03*
Y2720000D02*
D03*
X3680000Y2640000D02*
D03*
X3640000Y3040000D02*
D03*
X3520000Y3280000D02*
D03*
X3560000Y3200000D02*
D03*
X3520000Y3120000D02*
D03*
Y2960000D02*
D03*
X3560000Y2880000D02*
D03*
X3520000Y2800000D02*
D03*
X3555000Y2827000D02*
D03*
X3871000Y2793000D02*
D03*
X3772000Y2786000D02*
D03*
X3675000Y2787000D02*
D03*
X3964342Y2954945D02*
D03*
X3937299Y3025205D02*
D03*
X3852000Y2869000D02*
D03*
X3909000Y2848000D02*
D03*
X3939000D02*
D03*
X3628000Y2808000D02*
D03*
X3599000Y2878000D02*
D03*
X3589000Y2777000D02*
D03*
X3735000Y3200000D02*
D03*
X3779213Y3037417D02*
D03*
X3736000Y3110905D02*
D03*
X3839000Y2811000D02*
D03*
X3944000Y2812000D02*
D03*
X3765000Y3180000D02*
D03*
Y3228000D02*
D03*
X3654472Y3227528D02*
D03*
X3834000Y3000000D02*
D03*
X3769370Y2964370D02*
D03*
Y2925000D02*
D03*
Y2885630D02*
D03*
X3730000Y2964370D02*
D03*
Y2925000D02*
D03*
Y2885630D02*
D03*
X3690630Y2964370D02*
D03*
Y2925000D02*
D03*
Y2885630D02*
D03*
D28*
X4168598Y3214181D02*
D03*
Y2836228D02*
D03*
D29*
X4016000Y3163000D02*
D03*
Y3123630D02*
D03*
Y3084260D02*
D03*
Y3044890D02*
D03*
Y3005520D02*
D03*
Y2966150D02*
D03*
Y2926780D02*
D03*
Y2887409D02*
D03*
D30*
X3890000Y2950000D02*
D03*
X3890394Y3020472D02*
D03*
X3652606Y3158528D02*
D03*
X3653000Y3229000D02*
D03*
X3565000Y2945000D02*
D03*
X3565394Y3015472D02*
D03*
D31*
X3630000Y3090905D02*
D03*
X3700472Y3090512D02*
D03*
D32*
X3786693Y3228819D02*
D03*
X3873307D02*
D03*
Y3179606D02*
D03*
X3786693D02*
D03*
Y3130394D02*
D03*
X3873307D02*
D03*
X3786693Y3081181D02*
D03*
X3873307D02*
D03*
D33*
X3730000Y2925000D02*
D03*
D34*
X3652244Y2875787D02*
D03*
Y2895472D02*
D03*
Y2915157D02*
D03*
Y2934843D02*
D03*
Y2954528D02*
D03*
Y2974213D02*
D03*
X3807756D02*
D03*
Y2954528D02*
D03*
Y2934843D02*
D03*
Y2915157D02*
D03*
Y2895472D02*
D03*
Y2875787D02*
D03*
D35*
X3680787Y3003740D02*
D03*
X3700472D02*
D03*
X3720157D02*
D03*
X3739843D02*
D03*
X3759528D02*
D03*
X3779213D02*
D03*
Y2846260D02*
D03*
X3759528D02*
D03*
X3739843D02*
D03*
X3720157D02*
D03*
X3700472D02*
D03*
X3680787D02*
D03*
%TF.MD5,2e089b2109348fdccde6ee2529ff25b6*%
M02*
