%TF.GenerationSoftware,Altium Limited,Altium Designer,21.3.2 (30)*%
G04 Layer_Color=65535*
%FSLAX26Y26*%
%MOIN*%
%TF.SameCoordinates,7249F2FC-C291-4BAF-AEBD-B68F3D0C2602*%
%TF.FilePolarity,Positive*%
%TF.FileFunction,Legend,Top*%
%TF.Part,Single*%
G01*
G75*
%TA.AperFunction,NonConductor*%
%ADD24C,0.007874*%
%ADD25C,0.009842*%
%ADD26C,0.003937*%
%ADD27C,0.010000*%
D24*
X3970252Y2883472D02*
G03*
X3970252Y2891346I0J3937D01*
G01*
D02*
G03*
X3970252Y2883472I0J-3937D01*
G01*
X3925433Y2920866D02*
Y3049606D01*
X3854961Y2920866D02*
X3925433D01*
X3854961D02*
Y3049606D01*
X3925433D01*
X3688039Y3129394D02*
Y3258134D01*
X3617567Y3129394D02*
X3688039D01*
X3617567D02*
Y3258134D01*
X3688039D01*
X3600433Y2915866D02*
Y3044606D01*
X3529961Y2915866D02*
X3600433D01*
X3529961D02*
Y3044606D01*
X3600433D01*
X3600866Y3055472D02*
X3729606D01*
X3600866D02*
Y3125945D01*
X3729606D01*
Y3055472D02*
Y3125945D01*
X3824095Y3253425D02*
X3835905D01*
X3824095Y3056575D02*
X3835905D01*
X3812677Y2842323D02*
Y2853150D01*
X3801850Y2842323D02*
X3812677D01*
Y2996850D02*
Y3007677D01*
X3801850D02*
X3812677D01*
X3647323D02*
X3658150D01*
X3647323Y2996850D02*
Y3007677D01*
Y2842323D02*
Y2853150D01*
Y2842323D02*
X3658150D01*
D25*
X3748307Y3228819D02*
G03*
X3748307Y3228819I-4921J0D01*
G01*
X3654213Y2812795D02*
G03*
X3654213Y2812795I-4921J0D01*
G01*
D26*
X4034740Y3202370D02*
Y3222055D01*
X4111984D01*
X4168598Y2887409D02*
Y3163000D01*
X4034740Y2828354D02*
X4111984D01*
X4034740D02*
Y2848039D01*
D27*
X3563775Y3242191D02*
X3557943Y3248022D01*
X3546280D01*
X3540449Y3242191D01*
Y3218865D01*
X3546280Y3213033D01*
X3557943D01*
X3563775Y3218865D01*
X3592932Y3213033D02*
Y3248022D01*
X3575438Y3230528D01*
X3598764D01*
X3594169Y3176568D02*
X3588337Y3182400D01*
X3576674D01*
X3570843Y3176568D01*
Y3153243D01*
X3576674Y3147411D01*
X3588337D01*
X3594169Y3153243D01*
X3605831Y3176568D02*
X3611663Y3182400D01*
X3623326D01*
X3629157Y3176568D01*
Y3170737D01*
X3623326Y3164905D01*
X3617494D01*
X3623326D01*
X3629157Y3159074D01*
Y3153243D01*
X3623326Y3147411D01*
X3611663D01*
X3605831Y3153243D01*
X3547169Y3090663D02*
X3541337Y3096494D01*
X3529674D01*
X3523843Y3090663D01*
Y3067337D01*
X3529674Y3061506D01*
X3541337D01*
X3547169Y3067337D01*
X3582157Y3061506D02*
X3558831D01*
X3582157Y3084831D01*
Y3090663D01*
X3576326Y3096494D01*
X3564663D01*
X3558831Y3090663D01*
X3896000Y2896663D02*
X3890169Y2902494D01*
X3878506D01*
X3872674Y2896663D01*
Y2873337D01*
X3878506Y2867506D01*
X3890169D01*
X3896000Y2873337D01*
X3907663Y2867506D02*
X3919326D01*
X3913494D01*
Y2902494D01*
X3907663Y2896663D01*
X3690019Y3403868D02*
X3684187Y3409699D01*
X3672524D01*
X3666693Y3403868D01*
Y3398036D01*
X3672524Y3392205D01*
X3684187D01*
X3690019Y3386373D01*
Y3380542D01*
X3684187Y3374710D01*
X3672524D01*
X3666693Y3380542D01*
X3719176Y3374710D02*
X3707513D01*
X3701682Y3380542D01*
Y3392205D01*
X3707513Y3398036D01*
X3719176D01*
X3725007Y3392205D01*
Y3386373D01*
X3701682D01*
X3736670Y3374710D02*
Y3398036D01*
X3754164D01*
X3759996Y3392205D01*
Y3374710D01*
X3771659D02*
X3789153D01*
X3794985Y3380542D01*
X3789153Y3386373D01*
X3777490D01*
X3771659Y3392205D01*
X3777490Y3398036D01*
X3794985D01*
X3812479Y3374710D02*
X3824142D01*
X3829973Y3380542D01*
Y3392205D01*
X3824142Y3398036D01*
X3812479D01*
X3806648Y3392205D01*
Y3380542D01*
X3812479Y3374710D01*
X3841636Y3398036D02*
Y3374710D01*
Y3386373D01*
X3847468Y3392205D01*
X3853299Y3398036D01*
X3859131D01*
X3876625Y3409699D02*
Y3374710D01*
X3894119D01*
X3899951Y3380542D01*
Y3386373D01*
X3894119Y3392205D01*
X3876625D01*
X3894119D01*
X3899951Y3398036D01*
Y3403868D01*
X3894119Y3409699D01*
X3876625D01*
X3917445Y3374710D02*
X3929108D01*
X3934939Y3380542D01*
Y3392205D01*
X3929108Y3398036D01*
X3917445D01*
X3911614Y3392205D01*
Y3380542D01*
X3917445Y3374710D01*
X3952434Y3398036D02*
X3964097D01*
X3969928Y3392205D01*
Y3374710D01*
X3952434D01*
X3946602Y3380542D01*
X3952434Y3386373D01*
X3969928D01*
X3981591Y3398036D02*
Y3374710D01*
Y3386373D01*
X3987423Y3392205D01*
X3993254Y3398036D01*
X3999085D01*
X4039906Y3409699D02*
Y3374710D01*
X4022411D01*
X4016580Y3380542D01*
Y3392205D01*
X4022411Y3398036D01*
X4039906D01*
X3957494Y3069613D02*
X3922506D01*
X3934169Y3081276D01*
X3922506Y3092938D01*
X3957494D01*
X3928337Y3127927D02*
X3922506Y3122096D01*
Y3110433D01*
X3928337Y3104601D01*
X3934169D01*
X3940000Y3110433D01*
Y3122096D01*
X3945831Y3127927D01*
X3951663D01*
X3957494Y3122096D01*
Y3110433D01*
X3951663Y3104601D01*
X3922506Y3162916D02*
Y3139590D01*
X3940000D01*
X3934169Y3151253D01*
Y3157084D01*
X3940000Y3162916D01*
X3951663D01*
X3957494Y3157084D01*
Y3145421D01*
X3951663Y3139590D01*
X3922506Y3197905D02*
X3928337Y3186242D01*
X3940000Y3174579D01*
X3951663D01*
X3957494Y3180410D01*
Y3192073D01*
X3951663Y3197905D01*
X3945831D01*
X3940000Y3192073D01*
Y3174579D01*
X3957494Y3209567D02*
Y3221230D01*
Y3215399D01*
X3922506D01*
X3928337Y3209567D01*
X3957494Y3238725D02*
Y3250387D01*
Y3244556D01*
X3922506D01*
X3928337Y3238725D01*
X3687348Y2773506D02*
Y2808494D01*
X3699011Y2796831D01*
X3710674Y2808494D01*
Y2773506D01*
X3722337D02*
Y2808494D01*
X3739831D01*
X3745663Y2802663D01*
Y2791000D01*
X3739831Y2785169D01*
X3722337D01*
X3757326Y2808494D02*
Y2779337D01*
X3763157Y2773506D01*
X3774820D01*
X3780652Y2779337D01*
Y2808494D01*
%TF.MD5,e43ce79b0215a71f18740cf6fe98c05b*%
M02*
