%TF.GenerationSoftware,Altium Limited,Altium Designer,21.3.2 (30)*%
G04 Layer_Color=0*
%FSLAX26Y26*%
%MOIN*%
%TF.SameCoordinates,7249F2FC-C291-4BAF-AEBD-B68F3D0C2602*%
%TF.FilePolarity,Positive*%
%TF.FileFunction,Plated,1,2,PTH,Drill*%
%TF.Part,Single*%
G01*
G75*
%TA.AperFunction,OtherDrill,Pad Free-2 (4130mil,3350mil)*%
%ADD39C,0.090000*%
%TA.AperFunction,OtherDrill,Pad Free-2 (4130mil,2680mil)*%
%ADD40C,0.090000*%
%TA.AperFunction,OtherDrill,Pad Free-2 (3580mil,2680mil)*%
%ADD41C,0.090000*%
%TA.AperFunction,OtherDrill,Pad Free-2 (3580mil,3350mil)*%
%ADD42C,0.090000*%
%TA.AperFunction,ViaDrill,NotFilled*%
%ADD43C,0.012000*%
D39*
X4130000Y3350000D02*
D03*
D40*
Y2680000D02*
D03*
D41*
X3580000D02*
D03*
D42*
Y3350000D02*
D03*
D43*
X4160000Y3120000D02*
D03*
X4200000Y3040000D02*
D03*
X4160000Y2960000D02*
D03*
X4200000Y2880000D02*
D03*
X4120000Y3040000D02*
D03*
X4080000Y2960000D02*
D03*
X4120000Y2880000D02*
D03*
X4080000Y2800000D02*
D03*
X4040000Y3360000D02*
D03*
X4000000Y3280000D02*
D03*
Y2800000D02*
D03*
X4040000Y2720000D02*
D03*
X4000000Y2640000D02*
D03*
X3960000Y3360000D02*
D03*
X3920000Y3280000D02*
D03*
Y3120000D02*
D03*
X3960000Y2720000D02*
D03*
X3920000Y2640000D02*
D03*
X3880000Y3360000D02*
D03*
X3840000Y3280000D02*
D03*
X3880000Y2720000D02*
D03*
X3840000Y2640000D02*
D03*
X3800000Y3360000D02*
D03*
X3760000Y3280000D02*
D03*
X3800000Y2720000D02*
D03*
X3760000Y2640000D02*
D03*
X3720000Y3360000D02*
D03*
X3680000Y3280000D02*
D03*
X3720000Y3040000D02*
D03*
Y2720000D02*
D03*
X3680000Y2640000D02*
D03*
X3640000Y3040000D02*
D03*
X3520000Y3280000D02*
D03*
X3560000Y3200000D02*
D03*
X3520000Y3120000D02*
D03*
Y2960000D02*
D03*
X3560000Y2880000D02*
D03*
X3520000Y2800000D02*
D03*
X3555000Y2827000D02*
D03*
X3871000Y2793000D02*
D03*
X3772000Y2786000D02*
D03*
X3675000Y2787000D02*
D03*
X3964342Y2954945D02*
D03*
X3937299Y3025205D02*
D03*
X3852000Y2869000D02*
D03*
X3909000Y2848000D02*
D03*
X3939000D02*
D03*
X3628000Y2808000D02*
D03*
X3599000Y2878000D02*
D03*
X3589000Y2777000D02*
D03*
X3735000Y3200000D02*
D03*
X3779213Y3037417D02*
D03*
X3736000Y3110905D02*
D03*
X3839000Y2811000D02*
D03*
X3944000Y2812000D02*
D03*
X3765000Y3180000D02*
D03*
Y3228000D02*
D03*
X3654472Y3227528D02*
D03*
X3834000Y3000000D02*
D03*
X3769370Y2964370D02*
D03*
Y2925000D02*
D03*
Y2885630D02*
D03*
X3730000Y2964370D02*
D03*
Y2925000D02*
D03*
Y2885630D02*
D03*
X3690630Y2964370D02*
D03*
Y2925000D02*
D03*
Y2885630D02*
D03*
%TF.MD5,47ee7fc15091b5f64a86055ca5315375*%
M02*
