%TF.GenerationSoftware,Altium Limited,Altium Designer,21.3.2 (30)*%
G04 Layer_Physical_Order=1*
G04 Layer_Color=255*
%FSLAX26Y26*%
%MOIN*%
%TF.SameCoordinates,7249F2FC-C291-4BAF-AEBD-B68F3D0C2602*%
%TF.FilePolarity,Positive*%
%TF.FileFunction,Copper,L1,Top,Signal*%
%TF.Part,Single*%
G01*
G75*
%TA.AperFunction,SMDPad,CuDef*%
%ADD10R,0.070866X0.047244*%
%ADD11R,0.061024X0.023622*%
%ADD12R,0.051181X0.039370*%
%ADD13R,0.039370X0.051181*%
%ADD14R,0.043307X0.023622*%
%ADD15R,0.102362X0.106299*%
%ADD16R,0.033465X0.013780*%
%ADD17R,0.013780X0.031496*%
%TA.AperFunction,Conductor*%
%ADD18C,0.012000*%
%ADD19C,0.020000*%
%TA.AperFunction,ViaPad*%
%ADD20C,0.150000*%
%ADD21C,0.020000*%
G36*
X4235000Y2589000D02*
X3493000D01*
Y3440000D01*
X4235000D01*
Y2589000D01*
D02*
G37*
%LPC*%
G36*
X3683590Y3253685D02*
X3622410D01*
Y3204315D01*
X3683590D01*
Y3253685D01*
D02*
G37*
G36*
X4209031Y3242803D02*
X4128165D01*
Y3185559D01*
X4209031D01*
Y3242803D01*
D02*
G37*
G36*
X3683197Y3183213D02*
X3662606D01*
Y3168528D01*
X3683197D01*
Y3183213D01*
D02*
G37*
G36*
X3642606D02*
X3622016D01*
Y3168528D01*
X3642606D01*
Y3183213D01*
D02*
G37*
G36*
X3813347Y3245630D02*
X3760039D01*
Y3242181D01*
X3756503Y3240716D01*
X3752284Y3236497D01*
X3750000Y3230984D01*
Y3225016D01*
X3752284Y3219503D01*
X3756503Y3215284D01*
X3760039Y3213819D01*
Y3212008D01*
X3775477D01*
Y3196417D01*
X3760039D01*
Y3194307D01*
X3759147Y3194130D01*
X3757895Y3193293D01*
X3756503Y3192716D01*
X3755438Y3191651D01*
X3754186Y3190814D01*
X3753349Y3189562D01*
X3752284Y3188497D01*
X3751707Y3187105D01*
X3750870Y3185853D01*
X3750576Y3184375D01*
X3750000Y3182984D01*
Y3181477D01*
X3749706Y3180000D01*
X3750000Y3178523D01*
Y3177016D01*
X3750576Y3175625D01*
X3750870Y3174147D01*
X3751707Y3172895D01*
X3752284Y3171503D01*
X3753349Y3170438D01*
X3754186Y3169186D01*
X3755438Y3168349D01*
X3756503Y3167284D01*
X3757895Y3166707D01*
X3759147Y3165870D01*
X3760039Y3165693D01*
Y3162795D01*
X3813347D01*
Y3196417D01*
X3797909D01*
Y3212008D01*
X3813347D01*
Y3245630D01*
D02*
G37*
G36*
Y3147205D02*
X3796693D01*
Y3140394D01*
X3813347D01*
Y3147205D01*
D02*
G37*
G36*
X3776693D02*
X3760039D01*
Y3140394D01*
X3776693D01*
Y3147205D01*
D02*
G37*
G36*
X3683197Y3148528D02*
X3662606D01*
Y3133843D01*
X3683197D01*
Y3148528D01*
D02*
G37*
G36*
X3642606D02*
X3622016D01*
Y3133843D01*
X3642606D01*
Y3148528D01*
D02*
G37*
G36*
X3738984Y3125905D02*
X3733016D01*
X3727503Y3123622D01*
X3725199Y3121318D01*
X3714158D01*
X3714157Y3121318D01*
X3713073Y3121102D01*
X3675787D01*
Y3059921D01*
X3713073D01*
X3714157Y3059706D01*
X3715242Y3059921D01*
X3725157D01*
Y3069837D01*
X3725373Y3070921D01*
X3725157Y3072006D01*
Y3088337D01*
X3733016Y3095905D01*
X3738984D01*
X3744497Y3098189D01*
X3748716Y3102409D01*
X3750493Y3106698D01*
X3752549Y3111661D01*
X3760039Y3113582D01*
X3760780Y3113582D01*
X3768128Y3113583D01*
X3776693D01*
Y3120394D01*
X3759606D01*
X3750088Y3118079D01*
X3748716Y3119402D01*
X3748183Y3119936D01*
X3744497Y3123622D01*
X3738984Y3125905D01*
D02*
G37*
G36*
X3899961Y3147205D02*
X3846654D01*
Y3113583D01*
X3899961D01*
Y3147205D01*
D02*
G37*
G36*
X3813347Y3120394D02*
X3796693D01*
Y3113583D01*
X3813347D01*
Y3120394D01*
D02*
G37*
G36*
X3654685Y3121496D02*
X3640000D01*
Y3100906D01*
X3654685D01*
Y3121496D01*
D02*
G37*
G36*
X3620000D02*
X3605315D01*
Y3100906D01*
X3620000D01*
Y3121496D01*
D02*
G37*
G36*
X3899961Y3097992D02*
X3883307D01*
Y3091181D01*
X3899961D01*
Y3097992D01*
D02*
G37*
G36*
X3863307D02*
X3846654D01*
Y3091181D01*
X3863307D01*
Y3097992D01*
D02*
G37*
G36*
X3813347D02*
X3796693D01*
Y3091181D01*
X3813347D01*
Y3097992D01*
D02*
G37*
G36*
X3776693D02*
X3760039D01*
Y3091181D01*
X3776693D01*
Y3097992D01*
D02*
G37*
G36*
X3899961Y3071181D02*
X3883307D01*
Y3064370D01*
X3899961D01*
Y3071181D01*
D02*
G37*
G36*
X3863307D02*
X3846654D01*
Y3064370D01*
X3863307D01*
Y3071181D01*
D02*
G37*
G36*
X3813347D02*
X3796693D01*
Y3064370D01*
X3813347D01*
Y3071181D01*
D02*
G37*
G36*
X3776693D02*
X3760039D01*
Y3064370D01*
X3776693D01*
Y3071181D01*
D02*
G37*
G36*
X3654685Y3080906D02*
X3640000D01*
Y3060315D01*
X3654685D01*
Y3080906D01*
D02*
G37*
G36*
X3620000D02*
X3605315D01*
Y3060315D01*
X3620000D01*
Y3080906D01*
D02*
G37*
G36*
X3899961Y3245630D02*
X3846654D01*
Y3212008D01*
X3876356D01*
X3880568Y3202008D01*
X3875108Y3196417D01*
X3846654D01*
Y3162795D01*
X3899961D01*
Y3183109D01*
X3900636Y3183785D01*
X3972134D01*
X3980488Y3179811D01*
Y3173000D01*
X4016000D01*
Y3153000D01*
X3980488D01*
Y3146189D01*
X3980488Y3146189D01*
Y3140441D01*
X3980488D01*
X3980488Y3136189D01*
Y3106819D01*
X3980488D01*
Y3101071D01*
X3980488D01*
X3980488Y3063491D01*
X3973417Y3056420D01*
X3959465D01*
X3959464Y3056420D01*
X3955172Y3055566D01*
X3951533Y3053135D01*
X3951533Y3053135D01*
X3938603Y3040205D01*
X3934316D01*
X3930984Y3038825D01*
X3923859Y3041920D01*
X3920984Y3044245D01*
Y3045157D01*
X3900394D01*
Y3020472D01*
Y2995488D01*
X3908000Y2994000D01*
X3908000Y2994000D01*
X3908000Y2994000D01*
Y2976000D01*
X3898545Y2974685D01*
X3859410D01*
Y2946058D01*
X3834488D01*
Y2949527D01*
X3807756D01*
Y2959527D01*
X3834488D01*
Y2971417D01*
X3829488D01*
Y2983979D01*
X3831016Y2985000D01*
X3836984D01*
X3842497Y2987284D01*
X3846716Y2991503D01*
X3849000Y2997016D01*
Y3002984D01*
X3846716Y3008497D01*
X3842497Y3012716D01*
X3836984Y3015000D01*
X3834861D01*
X3803726Y3046135D01*
X3800087Y3048566D01*
X3795795Y3049420D01*
X3795795Y3049420D01*
X3788423D01*
X3787709Y3050134D01*
X3782196Y3052417D01*
X3776229D01*
X3770716Y3050134D01*
X3766496Y3045914D01*
X3764213Y3040401D01*
Y3034434D01*
X3757863Y3024488D01*
X3697677D01*
Y3029488D01*
X3685787D01*
Y3003740D01*
X3680787D01*
Y2998740D01*
X3663898D01*
Y2986102D01*
X3630512D01*
Y2973771D01*
X3627228Y2964853D01*
X3622936Y2963999D01*
X3619298Y2961568D01*
X3619298Y2961568D01*
X3613945Y2956215D01*
X3595590D01*
Y2969685D01*
X3534410D01*
Y2920315D01*
X3595590D01*
Y2933785D01*
X3618590D01*
X3618591Y2933784D01*
X3620512Y2934167D01*
X3627926Y2930058D01*
X3630512Y2927709D01*
Y2906688D01*
X3617512D01*
X3617512Y2906688D01*
X3613220Y2905834D01*
X3609581Y2903403D01*
X3599178Y2893000D01*
X3596016D01*
X3590503Y2890716D01*
X3586284Y2886497D01*
X3584000Y2880984D01*
Y2875016D01*
X3586284Y2869503D01*
X3590503Y2865284D01*
X3596016Y2863000D01*
X3601984D01*
X3607497Y2865284D01*
X3614427Y2862375D01*
X3616785Y2860429D01*
Y2817998D01*
X3615284Y2816497D01*
X3613000Y2810984D01*
Y2805016D01*
X3615284Y2799503D01*
X3619503Y2795284D01*
X3625016Y2793000D01*
X3630984D01*
X3636497Y2795284D01*
X3640716Y2799503D01*
X3643000Y2805016D01*
Y2810984D01*
X3640716Y2816497D01*
X3639215Y2817998D01*
Y2856740D01*
X3646157Y2863682D01*
X3651354D01*
X3651354Y2863682D01*
X3652439Y2863898D01*
X3663898D01*
Y2851260D01*
X3680787D01*
Y2846260D01*
X3685787D01*
Y2820512D01*
X3697677D01*
Y2825512D01*
X3789488D01*
X3792000Y2823000D01*
X3816911D01*
X3824000Y2813984D01*
Y2808016D01*
X3826284Y2802503D01*
X3830503Y2798284D01*
X3836016Y2796000D01*
X3841984D01*
X3847497Y2798284D01*
X3851716Y2802503D01*
X3854000Y2808016D01*
Y2810139D01*
X3880646Y2836785D01*
X3899002D01*
X3900503Y2835284D01*
X3906016Y2833000D01*
X3911984D01*
X3917497Y2835284D01*
X3921716Y2839503D01*
X3924000Y2845016D01*
Y2850984D01*
X3932007Y2857785D01*
X3937634D01*
X3937634Y2857784D01*
X3941926Y2858638D01*
X3945565Y2861069D01*
X3955689Y2871194D01*
X3980488D01*
Y2870598D01*
X4051512D01*
Y2904220D01*
X4051512D01*
Y2909969D01*
X4051512D01*
Y2943590D01*
X4051512D01*
Y2949339D01*
X4051512D01*
Y2982960D01*
X4051512D01*
Y2988709D01*
X4051512D01*
Y3022331D01*
X4051512D01*
Y3028079D01*
X4051512D01*
Y3057449D01*
X4051512Y3061701D01*
Y3069454D01*
X4054071Y3078855D01*
X4058363Y3079709D01*
X4062001Y3082140D01*
X4086930Y3107069D01*
X4086931Y3107069D01*
X4089362Y3110708D01*
X4090216Y3115000D01*
X4090215Y3115001D01*
Y3190000D01*
X4089362Y3194292D01*
X4086931Y3197931D01*
X4086930Y3197931D01*
X4061931Y3222931D01*
X4058292Y3225362D01*
X4054000Y3226216D01*
X4053999Y3226215D01*
X3900636D01*
X3899961Y3226891D01*
Y3245630D01*
D02*
G37*
G36*
X3880394Y3045157D02*
X3859803D01*
Y3030472D01*
X3880394D01*
Y3045157D01*
D02*
G37*
G36*
X3595984Y3040157D02*
X3575394D01*
Y3025472D01*
X3595984D01*
Y3040157D01*
D02*
G37*
G36*
X3555394D02*
X3534803D01*
Y3025472D01*
X3555394D01*
Y3040157D01*
D02*
G37*
G36*
X3675787Y3029488D02*
X3663898D01*
Y3008740D01*
X3675787D01*
Y3029488D01*
D02*
G37*
G36*
X3880394Y3010472D02*
X3859803D01*
Y2995787D01*
X3880394D01*
Y3010472D01*
D02*
G37*
G36*
X3595984Y3005472D02*
X3575394D01*
Y2990787D01*
X3595984D01*
Y3005472D01*
D02*
G37*
G36*
X3555394D02*
X3534803D01*
Y2990787D01*
X3555394D01*
Y3005472D01*
D02*
G37*
G36*
X3675787Y2841260D02*
X3663898D01*
Y2820512D01*
X3675787D01*
Y2841260D01*
D02*
G37*
G36*
X4209031Y2864850D02*
X4128165D01*
Y2807606D01*
X4209031D01*
Y2864850D01*
D02*
G37*
G36*
X3946984Y2827000D02*
X3941016D01*
X3935503Y2824716D01*
X3931284Y2820497D01*
X3929000Y2814984D01*
Y2812861D01*
X3890354Y2774215D01*
X3634282D01*
X3629567Y2778931D01*
X3625928Y2781362D01*
X3621636Y2782216D01*
X3621636Y2782215D01*
X3603076D01*
X3601716Y2785497D01*
X3597497Y2789716D01*
X3591984Y2792000D01*
X3586016D01*
X3580503Y2789716D01*
X3576284Y2785497D01*
X3574000Y2779984D01*
Y2774016D01*
X3576284Y2768503D01*
X3580503Y2764284D01*
X3586016Y2762000D01*
X3590835D01*
X3592873Y2760638D01*
X3597165Y2759784D01*
X3597165Y2759785D01*
X3616991D01*
X3621706Y2755069D01*
X3625344Y2752638D01*
X3629636Y2751784D01*
X3629637Y2751785D01*
X3894999D01*
X3895000Y2751784D01*
X3899292Y2752638D01*
X3902931Y2755069D01*
X3944861Y2797000D01*
X3946984D01*
X3952497Y2799284D01*
X3956716Y2803503D01*
X3959000Y2809016D01*
Y2814984D01*
X3956716Y2820497D01*
X3952497Y2824716D01*
X3946984Y2827000D01*
D02*
G37*
%LPD*%
D10*
X4168598Y3214181D02*
D03*
Y2836228D02*
D03*
D11*
X4016000Y3163000D02*
D03*
Y3123630D02*
D03*
Y3084260D02*
D03*
Y3044890D02*
D03*
Y3005520D02*
D03*
Y2966150D02*
D03*
Y2926780D02*
D03*
Y2887409D02*
D03*
D12*
X3890000Y2950000D02*
D03*
X3890394Y3020472D02*
D03*
X3652606Y3158528D02*
D03*
X3653000Y3229000D02*
D03*
X3565000Y2945000D02*
D03*
X3565394Y3015472D02*
D03*
D13*
X3630000Y3090905D02*
D03*
X3700472Y3090512D02*
D03*
D14*
X3786693Y3228819D02*
D03*
X3873307D02*
D03*
Y3179606D02*
D03*
X3786693D02*
D03*
Y3130394D02*
D03*
X3873307D02*
D03*
X3786693Y3081181D02*
D03*
X3873307D02*
D03*
D15*
X3730000Y2925000D02*
D03*
D16*
X3652244Y2875787D02*
D03*
Y2895472D02*
D03*
Y2915157D02*
D03*
Y2934843D02*
D03*
Y2954528D02*
D03*
Y2974213D02*
D03*
X3807756D02*
D03*
Y2954528D02*
D03*
Y2934843D02*
D03*
Y2915157D02*
D03*
Y2895472D02*
D03*
Y2875787D02*
D03*
D17*
X3680787Y3003740D02*
D03*
X3700472D02*
D03*
X3720157D02*
D03*
X3739843D02*
D03*
X3759528D02*
D03*
X3779213D02*
D03*
Y2846260D02*
D03*
X3759528D02*
D03*
X3739843D02*
D03*
X3720157D02*
D03*
X3700472D02*
D03*
X3680787D02*
D03*
D18*
X4079000Y3115000D02*
Y3190000D01*
X4060000Y3136470D02*
Y3184958D01*
X4049958Y3195000D02*
X4060000Y3184958D01*
X4054000Y3215000D02*
X4079000Y3190000D01*
X3895990Y3215000D02*
X4054000D01*
X3895990Y3195000D02*
X4049958D01*
X4021811Y3129441D02*
X4052970D01*
X4054071Y3090071D02*
X4079000Y3115000D01*
X4052970Y3129441D02*
X4060000Y3136470D01*
X4016000Y3123630D02*
X4021811Y3129441D01*
Y3090071D02*
X4054071D01*
X4016000Y3084260D02*
X4021811Y3090071D01*
X3873307Y3228819D02*
X3883150D01*
X3888961Y3222030D02*
Y3223008D01*
X3883150Y3228819D02*
X3888961Y3223008D01*
Y3222030D02*
X3895990Y3215000D01*
X3873307Y3179606D02*
X3883150D01*
X3888961Y3185417D02*
Y3187970D01*
X3895990Y3195000D01*
X3883150Y3179606D02*
X3888961Y3185417D01*
X3970546Y2961150D02*
X4021000D01*
X3951044Y2882409D02*
X4021000D01*
X3939464Y3025205D02*
X3959464Y3045205D01*
X3964342Y2954945D02*
X3970546Y2961150D01*
X4015685Y3045205D02*
X4016000Y3044890D01*
X3937634Y2869000D02*
X3951044Y2882409D01*
X3959464Y3045205D02*
X4015685D01*
X3852000Y2869000D02*
X3937634D01*
X3937299Y3025205D02*
X3939464D01*
X3876000Y2848000D02*
X3909000D01*
X3839000Y2811000D02*
X3876000Y2848000D01*
X3629636Y2763000D02*
X3895000D01*
X3597165Y2771000D02*
X3621636D01*
X3629636Y2763000D01*
X3628000Y2808000D02*
Y2861386D01*
X3641512Y2874898D01*
X3591165Y2777000D02*
X3597165Y2771000D01*
X3589000Y2777000D02*
X3591165D01*
X3895000Y2763000D02*
X3944000Y2812000D01*
X3617512Y2895472D02*
X3652244D01*
X3599000Y2878000D02*
X3600039D01*
X3617512Y2895472D01*
X3651354Y2874898D02*
X3652244Y2875787D01*
X3641512Y2874898D02*
X3651354D01*
X3700472Y3084606D02*
Y3096417D01*
X3780000Y3038205D02*
X3795795D01*
X3779213Y3003740D02*
Y3037417D01*
X3780000Y3038205D01*
X3795795D02*
X3834000Y3000000D01*
X3700472Y3084606D02*
X3714157Y3070921D01*
X3700472Y3096417D02*
X3714157Y3110102D01*
X3735197D01*
X3736000Y3110905D01*
X3653000Y3229000D02*
X3654472Y3227528D01*
X3970315Y3005315D02*
X4018701D01*
X3940000Y2930000D02*
Y2975000D01*
X3970315Y3005315D01*
X3807756Y2915157D02*
X3925157D01*
X3940000Y2930000D01*
X3969073Y2926575D02*
X4020551D01*
X4022126Y2925000D01*
X3937970Y2895472D02*
X3969073Y2926575D01*
X3786693Y3179606D02*
Y3228819D01*
X3807756Y2895472D02*
X3937970D01*
X3807756Y2934843D02*
X3868937D01*
X3884095Y2950000D01*
X3890000D01*
X3575000Y2945000D02*
X3618591D01*
X3627228Y2953638D01*
X3651354D01*
X3652244Y2954528D01*
D19*
X3765000Y3180000D02*
X3786299D01*
X3786693Y3179606D01*
D20*
X4130000Y3350000D02*
D03*
Y2680000D02*
D03*
X3580000D02*
D03*
Y3350000D02*
D03*
D21*
X4160000Y3120000D02*
D03*
X4200000Y3040000D02*
D03*
X4160000Y2960000D02*
D03*
X4200000Y2880000D02*
D03*
X4120000Y3040000D02*
D03*
X4080000Y2960000D02*
D03*
X4120000Y2880000D02*
D03*
X4080000Y2800000D02*
D03*
X4040000Y3360000D02*
D03*
X4000000Y3280000D02*
D03*
Y2800000D02*
D03*
X4040000Y2720000D02*
D03*
X4000000Y2640000D02*
D03*
X3960000Y3360000D02*
D03*
X3920000Y3280000D02*
D03*
Y3120000D02*
D03*
X3960000Y2720000D02*
D03*
X3920000Y2640000D02*
D03*
X3880000Y3360000D02*
D03*
X3840000Y3280000D02*
D03*
X3880000Y2720000D02*
D03*
X3840000Y2640000D02*
D03*
X3800000Y3360000D02*
D03*
X3760000Y3280000D02*
D03*
X3800000Y2720000D02*
D03*
X3760000Y2640000D02*
D03*
X3720000Y3360000D02*
D03*
X3680000Y3280000D02*
D03*
X3720000Y3040000D02*
D03*
Y2720000D02*
D03*
X3680000Y2640000D02*
D03*
X3640000Y3040000D02*
D03*
X3520000Y3280000D02*
D03*
X3560000Y3200000D02*
D03*
X3520000Y3120000D02*
D03*
Y2960000D02*
D03*
X3560000Y2880000D02*
D03*
X3520000Y2800000D02*
D03*
X3555000Y2827000D02*
D03*
X3871000Y2793000D02*
D03*
X3772000Y2786000D02*
D03*
X3675000Y2787000D02*
D03*
X3964342Y2954945D02*
D03*
X3937299Y3025205D02*
D03*
X3852000Y2869000D02*
D03*
X3909000Y2848000D02*
D03*
X3939000D02*
D03*
X3628000Y2808000D02*
D03*
X3599000Y2878000D02*
D03*
X3589000Y2777000D02*
D03*
X3735000Y3200000D02*
D03*
X3779213Y3037417D02*
D03*
X3736000Y3110905D02*
D03*
X3839000Y2811000D02*
D03*
X3944000Y2812000D02*
D03*
X3765000Y3180000D02*
D03*
Y3228000D02*
D03*
X3654472Y3227528D02*
D03*
X3834000Y3000000D02*
D03*
X3769370Y2964370D02*
D03*
Y2925000D02*
D03*
Y2885630D02*
D03*
X3730000Y2964370D02*
D03*
Y2925000D02*
D03*
Y2885630D02*
D03*
X3690630Y2964370D02*
D03*
Y2925000D02*
D03*
Y2885630D02*
D03*
%TF.MD5,e9628de51fd7548fc0b41653c2fcb2ec*%
M02*
