%TF.GenerationSoftware,Altium Limited,Altium Designer,21.3.2 (30)*%
G04 Layer_Color=8388736*
%FSLAX44Y44*%
%MOMM*%
%TF.SameCoordinates,DF9C5644-7730-4CB0-946D-AD2690A7FF42*%
%TF.FilePolarity,Negative*%
%TF.FileFunction,Soldermask,Top*%
%TF.Part,Single*%
G01*
G75*
%TA.AperFunction,SMDPad,CuDef*%
%ADD48R,1.2032X1.5032*%
%ADD49R,1.5032X1.2032*%
%ADD59R,1.7272X1.7272*%
%TA.AperFunction,ComponentPad*%
%ADD60C,1.8532*%
%ADD61R,1.8532X1.8532*%
%TA.AperFunction,ViaPad*%
%ADD62C,6.1976*%
%ADD63C,0.7112*%
%TA.AperFunction,SMDPad,CuDef*%
%ADD66R,1.7032X1.7032*%
%ADD67R,1.5032X1.8032*%
%ADD68R,0.5032X1.6782*%
%ADD69R,1.6782X0.5032*%
%ADD70R,1.7032X1.7032*%
%ADD71R,2.9032X1.2032*%
%ADD72R,1.9032X0.8032*%
%ADD73R,1.4032X2.0032*%
%ADD74R,0.8032X1.7532*%
%ADD75R,0.8032X1.7532*%
%ADD76R,1.4032X2.0032*%
%ADD77R,2.0032X1.4032*%
%ADD78R,1.7532X0.8032*%
D48*
X855980Y698500D02*
D03*
X873880Y698400D02*
D03*
X840620Y788770D02*
D03*
X858520Y788670D02*
D03*
X701040Y915670D02*
D03*
X683140Y915770D02*
D03*
X701040Y895350D02*
D03*
X683140Y895450D02*
D03*
X777120Y906880D02*
D03*
X795020Y906780D02*
D03*
X777240Y890270D02*
D03*
X795140Y890170D02*
D03*
D49*
X853340Y816490D02*
D03*
X853440Y834390D02*
D03*
X830580D02*
D03*
X830480Y816490D02*
D03*
X650340Y762120D02*
D03*
X650240Y744220D02*
D03*
X670660Y762120D02*
D03*
X670560Y744220D02*
D03*
D59*
X601980Y671830D02*
D03*
X635000D02*
D03*
D60*
X723900Y652540D02*
D03*
X698500D02*
D03*
X749300D02*
D03*
X774700D02*
D03*
X800100D02*
D03*
D61*
X673100D02*
D03*
D62*
X609600Y609600D02*
D03*
X914400D02*
D03*
Y914400D02*
D03*
X609600D02*
D03*
D63*
X712724Y907542D02*
D03*
X764032Y900176D02*
D03*
X762000Y909066D02*
D03*
X762508Y917448D02*
D03*
X676341Y673507D02*
D03*
X662371Y615849D02*
D03*
X755335Y626009D02*
D03*
X812485Y628041D02*
D03*
X844997Y610007D02*
D03*
X848299Y683921D02*
D03*
X825246Y663702D02*
D03*
X936945Y756057D02*
D03*
X907633Y862864D02*
D03*
X931357Y839877D02*
D03*
X662432Y773176D02*
D03*
X657098Y781050D02*
D03*
X753364Y895096D02*
D03*
X725424Y924052D02*
D03*
X720090Y910590D02*
D03*
X768410Y729504D02*
D03*
X698500Y693420D02*
D03*
X772820Y723290D02*
D03*
X811510Y886440D02*
D03*
X831850Y689610D02*
D03*
X829135Y682075D02*
D03*
X955109Y708565D02*
D03*
X844619Y740315D02*
D03*
X664210Y835660D02*
D03*
X651510Y808990D02*
D03*
X666750Y816610D02*
D03*
X660114Y810883D02*
D03*
X651333Y800570D02*
D03*
X859790Y863600D02*
D03*
X864870Y819150D02*
D03*
X842010Y816610D02*
D03*
X818919Y829079D02*
D03*
X721360Y666750D02*
D03*
X734060Y680720D02*
D03*
X849428Y844550D02*
D03*
X854710Y881380D02*
D03*
X740410Y635000D02*
D03*
X793750Y748030D02*
D03*
X822960Y876300D02*
D03*
X803910Y889000D02*
D03*
X768350Y924560D02*
D03*
X637540Y647700D02*
D03*
X638810Y765810D02*
D03*
X779780Y703580D02*
D03*
X808990Y681990D02*
D03*
X773430Y668020D02*
D03*
X648970Y835660D02*
D03*
X786130Y890270D02*
D03*
X610870Y748030D02*
D03*
X637540Y784860D02*
D03*
X643936Y772200D02*
D03*
X651555Y772329D02*
D03*
X656590Y794180D02*
D03*
X787400Y642620D02*
D03*
X774700Y675640D02*
D03*
X946150Y637540D02*
D03*
X930910Y711200D02*
D03*
Y676910D02*
D03*
X647700Y885190D02*
D03*
X701040Y930910D02*
D03*
X623570Y770890D02*
D03*
X711200Y941070D02*
D03*
X610870Y876300D02*
D03*
X591820Y788670D02*
D03*
Y847090D02*
D03*
X654050Y869950D02*
D03*
X670560Y882650D02*
D03*
X692150Y873760D02*
D03*
X671830Y858520D02*
D03*
X782320Y777240D02*
D03*
X765810D02*
D03*
X748030D02*
D03*
X730250D02*
D03*
X712470D02*
D03*
X782320Y793750D02*
D03*
X765810D02*
D03*
X748030D02*
D03*
X730250D02*
D03*
X712470D02*
D03*
X782320Y811530D02*
D03*
X765810D02*
D03*
X748030D02*
D03*
X730250D02*
D03*
X712470D02*
D03*
X782320Y829310D02*
D03*
X765810D02*
D03*
X748030D02*
D03*
X730250D02*
D03*
X712470D02*
D03*
X782320Y845820D02*
D03*
X765810D02*
D03*
X748030D02*
D03*
X730250D02*
D03*
X712470D02*
D03*
X810260Y910590D02*
D03*
X833120Y906780D02*
D03*
X853440Y939800D02*
D03*
X657860Y693420D02*
D03*
X635000Y690880D02*
D03*
X615950Y688340D02*
D03*
X690880Y735330D02*
D03*
X670560Y716280D02*
D03*
X927100Y792480D02*
D03*
X922020Y829310D02*
D03*
X864562Y646122D02*
D03*
X869950Y651510D02*
D03*
X825500Y695960D02*
D03*
X855980Y599440D02*
D03*
X807720Y596900D02*
D03*
X905510Y688340D02*
D03*
X891540Y690880D02*
D03*
X894080Y720090D02*
D03*
X890270Y737870D02*
D03*
X885190Y750570D02*
D03*
X868680Y775970D02*
D03*
X853440D02*
D03*
X830580Y702310D02*
D03*
X829310Y725170D02*
D03*
Y744220D02*
D03*
X808990Y698500D02*
D03*
X662940Y599440D02*
D03*
X635000Y636270D02*
D03*
X943610Y706120D02*
D03*
X919480D02*
D03*
X829310Y756920D02*
D03*
X825611Y770011D02*
D03*
X654050Y853440D02*
D03*
X683260Y882650D02*
D03*
X753110Y942340D02*
D03*
X746850Y937260D02*
D03*
X668020Y845820D02*
D03*
X744220Y706120D02*
D03*
X821515Y805355D02*
D03*
X651510Y642620D02*
D03*
X744220Y673100D02*
D03*
Y692150D02*
D03*
D66*
X943610Y693140D02*
D03*
Y658140D02*
D03*
X919480Y693140D02*
D03*
Y658140D02*
D03*
D67*
X849560Y721410D02*
D03*
Y759410D02*
D03*
X872560D02*
D03*
Y721410D02*
D03*
D68*
X785692Y755142D02*
D03*
X780692D02*
D03*
X775692D02*
D03*
X770692D02*
D03*
X765692D02*
D03*
X760692D02*
D03*
X755692D02*
D03*
X750692D02*
D03*
X745692D02*
D03*
X740692D02*
D03*
X735692D02*
D03*
X730692D02*
D03*
X725692D02*
D03*
X720692D02*
D03*
X715692D02*
D03*
X710692D02*
D03*
Y869902D02*
D03*
X715692D02*
D03*
X720692D02*
D03*
X725692D02*
D03*
X730692D02*
D03*
X735692D02*
D03*
X740692D02*
D03*
X745692D02*
D03*
X750692D02*
D03*
X755692D02*
D03*
X760692D02*
D03*
X765692D02*
D03*
X770692D02*
D03*
X775692D02*
D03*
X780692D02*
D03*
X785692D02*
D03*
D69*
X690812Y775022D02*
D03*
Y780022D02*
D03*
Y785022D02*
D03*
Y790022D02*
D03*
Y795022D02*
D03*
Y800022D02*
D03*
Y805022D02*
D03*
Y810022D02*
D03*
Y815022D02*
D03*
Y820022D02*
D03*
Y825022D02*
D03*
Y830022D02*
D03*
Y835022D02*
D03*
Y840022D02*
D03*
Y845022D02*
D03*
Y850022D02*
D03*
X805572D02*
D03*
Y845022D02*
D03*
Y840022D02*
D03*
Y835022D02*
D03*
Y830022D02*
D03*
Y825022D02*
D03*
Y820022D02*
D03*
Y815022D02*
D03*
Y810022D02*
D03*
Y805022D02*
D03*
Y800022D02*
D03*
Y795022D02*
D03*
Y790022D02*
D03*
Y785022D02*
D03*
Y780022D02*
D03*
Y775022D02*
D03*
D70*
X635990Y703580D02*
D03*
X600990D02*
D03*
D71*
X590550Y863600D02*
D03*
Y764100D02*
D03*
D72*
X622550Y845100D02*
D03*
Y832600D02*
D03*
Y820100D02*
D03*
Y807600D02*
D03*
Y795100D02*
D03*
Y782600D02*
D03*
D73*
X840880Y574660D02*
D03*
X784880D02*
D03*
D74*
X797880Y613410D02*
D03*
X807880D02*
D03*
X817880D02*
D03*
X827880D02*
D03*
D75*
X672390Y616280D02*
D03*
X682390D02*
D03*
X692390D02*
D03*
X702390D02*
D03*
X712390D02*
D03*
X722390D02*
D03*
X732390D02*
D03*
X742390D02*
D03*
D76*
X659390Y577520D02*
D03*
X755390D02*
D03*
D77*
X948070Y777380D02*
D03*
Y721380D02*
D03*
Y862470D02*
D03*
Y806470D02*
D03*
D78*
X909320Y734380D02*
D03*
Y744380D02*
D03*
Y754380D02*
D03*
Y764380D02*
D03*
Y819470D02*
D03*
Y829470D02*
D03*
Y839470D02*
D03*
Y849470D02*
D03*
%TF.MD5,85b908e9993eb4545fc671651feda61b*%
M02*
