%TF.GenerationSoftware,Altium Limited,Altium Designer,21.3.2 (30)*%
G04 Layer_Color=128*
%FSLAX44Y44*%
%MOMM*%
%TF.SameCoordinates,DF9C5644-7730-4CB0-946D-AD2690A7FF42*%
%TF.FilePolarity,Positive*%
%TF.FileFunction,Paste,Bot*%
%TF.Part,Single*%
G01*
G75*
%TA.AperFunction,SMDPad,CuDef*%
%ADD12R,1.3000X1.0000*%
%ADD15R,1.5240X1.5240*%
%ADD25R,1.0000X1.3000*%
%ADD33R,1.9000X0.9000*%
%ADD34R,1.9000X3.2000*%
%ADD35R,1.8000X1.2000*%
%ADD36R,1.5500X0.6000*%
%ADD37R,0.9100X1.2200*%
%ADD38R,1.5000X1.3000*%
%ADD39R,1.3000X1.5240*%
%ADD40R,1.8000X1.3000*%
%ADD41R,1.5240X1.5240*%
D12*
X673100Y776224D02*
D03*
X673200Y758324D02*
D03*
D15*
X759460Y694690D02*
D03*
X792480D02*
D03*
X759460Y674370D02*
D03*
X792480D02*
D03*
D25*
X701294Y915670D02*
D03*
X683394Y915570D02*
D03*
X784740Y735230D02*
D03*
X802640Y735330D02*
D03*
X784740Y714910D02*
D03*
X802640Y715010D02*
D03*
D33*
X638120Y703720D02*
D03*
Y680720D02*
D03*
Y657720D02*
D03*
D34*
X579120Y680720D02*
D03*
D35*
X581000Y866440D02*
D03*
Y770440D02*
D03*
X945540Y725990D02*
D03*
Y821990D02*
D03*
D36*
X619760Y853440D02*
D03*
Y843440D02*
D03*
Y833440D02*
D03*
Y823440D02*
D03*
Y813440D02*
D03*
Y803440D02*
D03*
Y793440D02*
D03*
Y783440D02*
D03*
X906780Y738990D02*
D03*
Y748990D02*
D03*
Y758990D02*
D03*
Y768990D02*
D03*
Y778990D02*
D03*
Y788990D02*
D03*
Y798990D02*
D03*
Y808990D02*
D03*
D37*
X623410Y746760D02*
D03*
X590710D02*
D03*
D38*
X838200Y787790D02*
D03*
Y804790D02*
D03*
D39*
X660400Y674370D02*
D03*
X693420D02*
D03*
X591820Y726440D02*
D03*
X624840D02*
D03*
D40*
X862330Y805920D02*
D03*
Y834920D02*
D03*
D41*
X943610Y693420D02*
D03*
Y660400D02*
D03*
X919480Y693140D02*
D03*
Y660120D02*
D03*
%TF.MD5,69f9739c5db6f2d111f5ed8a6ccb589e*%
M02*
