%TF.GenerationSoftware,Altium Limited,Altium Designer,21.3.2 (30)*%
G04 Layer_Color=128*
%FSLAX44Y44*%
%MOMM*%
%TF.SameCoordinates,DF9C5644-7730-4CB0-946D-AD2690A7FF42*%
%TF.FilePolarity,Positive*%
%TF.FileFunction,Drillmap*%
%TF.Part,Single*%
G01*
G75*
%TA.AperFunction,NonConductor*%
%ADD65C,0.1270*%
D65*
X718400Y652540D02*
X729400D01*
X723900Y647040D02*
Y658040D01*
X667600Y652540D02*
X678600D01*
X673100Y647040D02*
Y658040D01*
X693000Y652540D02*
X704000D01*
X698500Y647040D02*
Y658040D01*
X743800Y652540D02*
X754800D01*
X749300Y647040D02*
Y658040D01*
X769200Y652540D02*
X780200D01*
X774700Y647040D02*
Y658040D01*
X794600Y652540D02*
X805600D01*
X800100Y647040D02*
Y658040D01*
X594360Y609600D02*
X624840D01*
X609600Y594360D02*
Y624840D01*
X899160Y609600D02*
X929640D01*
X914400Y594360D02*
Y624840D01*
X899160Y914400D02*
X929640D01*
X914400Y899160D02*
Y929640D01*
X594360Y914400D02*
X624840D01*
X609600Y899160D02*
Y929640D01*
X711200Y907542D02*
X714248D01*
X712724Y906018D02*
Y909066D01*
X762508Y900176D02*
X765556D01*
X764032Y898652D02*
Y901700D01*
X760476Y909066D02*
X763524D01*
X762000Y907542D02*
Y910590D01*
X760984Y917448D02*
X764032D01*
X762508Y915924D02*
Y918972D01*
X674817Y673507D02*
X677865D01*
X676341Y671983D02*
Y675031D01*
X660847Y615849D02*
X663895D01*
X662371Y614325D02*
Y617373D01*
X753811Y626009D02*
X756859D01*
X755335Y624485D02*
Y627533D01*
X810961Y628041D02*
X814009D01*
X812485Y626517D02*
Y629565D01*
X843473Y610007D02*
X846521D01*
X844997Y608483D02*
Y611531D01*
X846775Y683921D02*
X849823D01*
X848299Y682397D02*
Y685445D01*
X823722Y663702D02*
X826770D01*
X825246Y662178D02*
Y665226D01*
X935421Y756057D02*
X938469D01*
X936945Y754533D02*
Y757581D01*
X906109Y862864D02*
X909157D01*
X907633Y861340D02*
Y864388D01*
X929833Y839877D02*
X932881D01*
X931357Y838353D02*
Y841401D01*
X660908Y773176D02*
X663956D01*
X662432Y771652D02*
Y774700D01*
X655574Y781050D02*
X658622D01*
X657098Y779526D02*
Y782574D01*
X751840Y895096D02*
X754888D01*
X753364Y893572D02*
Y896620D01*
X723900Y924052D02*
X726948D01*
X725424Y922528D02*
Y925576D01*
X718566Y910590D02*
X721614D01*
X720090Y909066D02*
Y912114D01*
X766886Y729504D02*
X769934D01*
X768410Y727980D02*
Y731028D01*
X696976Y693420D02*
X700024D01*
X698500Y691896D02*
Y694944D01*
X771296Y723290D02*
X774344D01*
X772820Y721766D02*
Y724814D01*
X809986Y886440D02*
X813034D01*
X811510Y884916D02*
Y887964D01*
X830326Y689610D02*
X833374D01*
X831850Y688086D02*
Y691134D01*
X827610Y682075D02*
X830658D01*
X829135Y680551D02*
Y683599D01*
X953585Y708565D02*
X956633D01*
X955109Y707041D02*
Y710089D01*
X843095Y740315D02*
X846143D01*
X844619Y738791D02*
Y741839D01*
X662686Y835660D02*
X665734D01*
X664210Y834136D02*
Y837184D01*
X649986Y808990D02*
X653034D01*
X651510Y807466D02*
Y810514D01*
X665226Y816610D02*
X668274D01*
X666750Y815086D02*
Y818134D01*
X658590Y810883D02*
X661638D01*
X660114Y809359D02*
Y812407D01*
X649809Y800570D02*
X652857D01*
X651333Y799046D02*
Y802094D01*
X858266Y863600D02*
X861314D01*
X859790Y862076D02*
Y865124D01*
X863346Y819150D02*
X866394D01*
X864870Y817626D02*
Y820674D01*
X840486Y816610D02*
X843534D01*
X842010Y815086D02*
Y818134D01*
X817395Y829079D02*
X820443D01*
X818919Y827555D02*
Y830603D01*
X719836Y666750D02*
X722884D01*
X721360Y665226D02*
Y668274D01*
X732536Y680720D02*
X735584D01*
X734060Y679196D02*
Y682244D01*
X847904Y844550D02*
X850952D01*
X849428Y843026D02*
Y846074D01*
X853186Y881380D02*
X856234D01*
X854710Y879856D02*
Y882904D01*
X738886Y635000D02*
X741934D01*
X740410Y633476D02*
Y636524D01*
X792226Y748030D02*
X795274D01*
X793750Y746506D02*
Y749554D01*
X821436Y876300D02*
X824484D01*
X822960Y874776D02*
Y877824D01*
X802386Y889000D02*
X805434D01*
X803910Y887476D02*
Y890524D01*
X766826Y924560D02*
X769874D01*
X768350Y923036D02*
Y926084D01*
X636016Y647700D02*
X639064D01*
X637540Y646176D02*
Y649224D01*
X637286Y765810D02*
X640334D01*
X638810Y764286D02*
Y767334D01*
X778256Y703580D02*
X781304D01*
X779780Y702056D02*
Y705104D01*
X807466Y681990D02*
X810514D01*
X808990Y680466D02*
Y683514D01*
X771906Y668020D02*
X774954D01*
X773430Y666496D02*
Y669544D01*
X647446Y835660D02*
X650494D01*
X648970Y834136D02*
Y837184D01*
X784606Y890270D02*
X787654D01*
X786130Y888746D02*
Y891794D01*
X609346Y748030D02*
X612394D01*
X610870Y746506D02*
Y749554D01*
X636016Y784860D02*
X639064D01*
X637540Y783336D02*
Y786384D01*
X642412Y772200D02*
X645460D01*
X643936Y770676D02*
Y773724D01*
X650031Y772329D02*
X653079D01*
X651555Y770805D02*
Y773853D01*
X655066Y794180D02*
X658114D01*
X656590Y792656D02*
Y795704D01*
X785876Y642620D02*
X788924D01*
X787400Y641096D02*
Y644144D01*
X773176Y675640D02*
X776224D01*
X774700Y674116D02*
Y677164D01*
X944626Y637540D02*
X947674D01*
X946150Y636016D02*
Y639064D01*
X929386Y711200D02*
X932434D01*
X930910Y709676D02*
Y712724D01*
X929386Y676910D02*
X932434D01*
X930910Y675386D02*
Y678434D01*
X646176Y885190D02*
X649224D01*
X647700Y883666D02*
Y886714D01*
X699516Y930910D02*
X702564D01*
X701040Y929386D02*
Y932434D01*
X622046Y770890D02*
X625094D01*
X623570Y769366D02*
Y772414D01*
X709676Y941070D02*
X712724D01*
X711200Y939546D02*
Y942594D01*
X609346Y876300D02*
X612394D01*
X610870Y874776D02*
Y877824D01*
X590296Y788670D02*
X593344D01*
X591820Y787146D02*
Y790194D01*
X590296Y847090D02*
X593344D01*
X591820Y845566D02*
Y848614D01*
X652526Y869950D02*
X655574D01*
X654050Y868426D02*
Y871474D01*
X669036Y882650D02*
X672084D01*
X670560Y881126D02*
Y884174D01*
X690626Y873760D02*
X693674D01*
X692150Y872236D02*
Y875284D01*
X670306Y858520D02*
X673354D01*
X671830Y856996D02*
Y860044D01*
X780796Y777240D02*
X783844D01*
X782320Y775716D02*
Y778764D01*
X764286Y777240D02*
X767334D01*
X765810Y775716D02*
Y778764D01*
X746506Y777240D02*
X749554D01*
X748030Y775716D02*
Y778764D01*
X728726Y777240D02*
X731774D01*
X730250Y775716D02*
Y778764D01*
X710946Y777240D02*
X713994D01*
X712470Y775716D02*
Y778764D01*
X780796Y793750D02*
X783844D01*
X782320Y792226D02*
Y795274D01*
X764286Y793750D02*
X767334D01*
X765810Y792226D02*
Y795274D01*
X746506Y793750D02*
X749554D01*
X748030Y792226D02*
Y795274D01*
X728726Y793750D02*
X731774D01*
X730250Y792226D02*
Y795274D01*
X710946Y793750D02*
X713994D01*
X712470Y792226D02*
Y795274D01*
X780796Y811530D02*
X783844D01*
X782320Y810006D02*
Y813054D01*
X764286Y811530D02*
X767334D01*
X765810Y810006D02*
Y813054D01*
X746506Y811530D02*
X749554D01*
X748030Y810006D02*
Y813054D01*
X728726Y811530D02*
X731774D01*
X730250Y810006D02*
Y813054D01*
X710946Y811530D02*
X713994D01*
X712470Y810006D02*
Y813054D01*
X780796Y829310D02*
X783844D01*
X782320Y827786D02*
Y830834D01*
X764286Y829310D02*
X767334D01*
X765810Y827786D02*
Y830834D01*
X746506Y829310D02*
X749554D01*
X748030Y827786D02*
Y830834D01*
X728726Y829310D02*
X731774D01*
X730250Y827786D02*
Y830834D01*
X710946Y829310D02*
X713994D01*
X712470Y827786D02*
Y830834D01*
X780796Y845820D02*
X783844D01*
X782320Y844296D02*
Y847344D01*
X764286Y845820D02*
X767334D01*
X765810Y844296D02*
Y847344D01*
X746506Y845820D02*
X749554D01*
X748030Y844296D02*
Y847344D01*
X728726Y845820D02*
X731774D01*
X730250Y844296D02*
Y847344D01*
X710946Y845820D02*
X713994D01*
X712470Y844296D02*
Y847344D01*
X808736Y910590D02*
X811784D01*
X810260Y909066D02*
Y912114D01*
X831596Y906780D02*
X834644D01*
X833120Y905256D02*
Y908304D01*
X851916Y939800D02*
X854964D01*
X853440Y938276D02*
Y941324D01*
X656336Y693420D02*
X659384D01*
X657860Y691896D02*
Y694944D01*
X633476Y690880D02*
X636524D01*
X635000Y689356D02*
Y692404D01*
X614426Y688340D02*
X617474D01*
X615950Y686816D02*
Y689864D01*
X689356Y735330D02*
X692404D01*
X690880Y733806D02*
Y736854D01*
X669036Y716280D02*
X672084D01*
X670560Y714756D02*
Y717804D01*
X925576Y792480D02*
X928624D01*
X927100Y790956D02*
Y794004D01*
X920496Y829310D02*
X923544D01*
X922020Y827786D02*
Y830834D01*
X863038Y646122D02*
X866086D01*
X864562Y644598D02*
Y647646D01*
X868426Y651510D02*
X871474D01*
X869950Y649986D02*
Y653034D01*
X823976Y695960D02*
X827024D01*
X825500Y694436D02*
Y697484D01*
X854456Y599440D02*
X857504D01*
X855980Y597916D02*
Y600964D01*
X806196Y596900D02*
X809244D01*
X807720Y595376D02*
Y598424D01*
X903986Y688340D02*
X907034D01*
X905510Y686816D02*
Y689864D01*
X890016Y690880D02*
X893064D01*
X891540Y689356D02*
Y692404D01*
X892556Y720090D02*
X895604D01*
X894080Y718566D02*
Y721614D01*
X888746Y737870D02*
X891794D01*
X890270Y736346D02*
Y739394D01*
X883666Y750570D02*
X886714D01*
X885190Y749046D02*
Y752094D01*
X867156Y775970D02*
X870204D01*
X868680Y774446D02*
Y777494D01*
X851916Y775970D02*
X854964D01*
X853440Y774446D02*
Y777494D01*
X829056Y702310D02*
X832104D01*
X830580Y700786D02*
Y703834D01*
X827786Y725170D02*
X830834D01*
X829310Y723646D02*
Y726694D01*
X827786Y744220D02*
X830834D01*
X829310Y742696D02*
Y745744D01*
X807466Y698500D02*
X810514D01*
X808990Y696976D02*
Y700024D01*
X661416Y599440D02*
X664464D01*
X662940Y597916D02*
Y600964D01*
X633476Y636270D02*
X636524D01*
X635000Y634746D02*
Y637794D01*
X942086Y706120D02*
X945134D01*
X943610Y704596D02*
Y707644D01*
X917956Y706120D02*
X921004D01*
X919480Y704596D02*
Y707644D01*
X827786Y756920D02*
X830834D01*
X829310Y755396D02*
Y758444D01*
X824087Y770011D02*
X827135D01*
X825611Y768487D02*
Y771535D01*
X652526Y853440D02*
X655574D01*
X654050Y851916D02*
Y854964D01*
X681736Y882650D02*
X684784D01*
X683260Y881126D02*
Y884174D01*
X751586Y942340D02*
X754634D01*
X753110Y940816D02*
Y943864D01*
X745326Y937260D02*
X748374D01*
X746850Y935736D02*
Y938784D01*
X666496Y845820D02*
X669544D01*
X668020Y844296D02*
Y847344D01*
X742696Y706120D02*
X745744D01*
X744220Y704596D02*
Y707644D01*
X819991Y805355D02*
X823039D01*
X821515Y803831D02*
Y806879D01*
X649986Y642620D02*
X653034D01*
X651510Y641096D02*
Y644144D01*
X742696Y673100D02*
X745744D01*
X744220Y671576D02*
Y674624D01*
X742696Y692150D02*
X745744D01*
X744220Y690626D02*
Y693674D01*
%TF.MD5,76fcfeba71631d76cb31cd32cfc03d08*%
M02*
