%TF.GenerationSoftware,Altium Limited,Altium Designer,21.3.2 (30)*%
G04 Layer_Color=32768*
%FSLAX44Y44*%
%MOMM*%
%TF.SameCoordinates,DF9C5644-7730-4CB0-946D-AD2690A7FF42*%
%TF.FilePolarity,Positive*%
%TF.FileFunction,Other,Mechanical_15*%
%TF.Part,Single*%
G01*
G75*
%TA.AperFunction,NonConductor*%
%ADD44C,0.1000*%
%ADD47C,0.2540*%
%ADD80C,0.0500*%
D44*
X603620Y680720D02*
X613620D01*
X608620Y675720D02*
Y685720D01*
X567000Y759440D02*
X637380D01*
X567000D02*
Y877440D01*
X637380D01*
Y759440D02*
Y877440D01*
X889160Y832990D02*
X959540D01*
Y714990D02*
Y832990D01*
X889160Y714990D02*
X959540D01*
X889160D02*
Y832990D01*
X607060Y741760D02*
Y751760D01*
X602060Y746760D02*
X612060D01*
X828200Y778790D02*
X848200D01*
X828200Y813790D02*
X848200D01*
Y778790D02*
Y813790D01*
X828200Y778790D02*
Y813790D01*
X838200Y791290D02*
Y801290D01*
X833200Y796290D02*
X843200D01*
X850830Y796920D02*
X873830D01*
X850830Y843920D02*
X873830D01*
Y796920D02*
Y843920D01*
X850830Y796920D02*
Y843920D01*
X862330Y815420D02*
Y825420D01*
X857330Y820420D02*
X867330D01*
X833060Y703410D02*
X889060D01*
Y777410D01*
X833060D02*
X889060D01*
X833060Y703410D02*
Y777410D01*
X567050Y878600D02*
X650300D01*
X567050Y749100D02*
Y878600D01*
Y749100D02*
X650300D01*
Y878600D01*
X648390Y633900D02*
X766390D01*
Y563520D02*
Y633900D01*
X648390Y563520D02*
X766390D01*
X648390D02*
Y633900D01*
D47*
X962025Y916305D02*
G03*
X916305Y962025I-45720J0D01*
G01*
Y561975D02*
G03*
X962025Y607695I0J45720D01*
G01*
X607695Y962025D02*
G03*
X561975Y916305I0J-45720D01*
G01*
Y607695D02*
G03*
X607695Y561975I45720J0D01*
G01*
X916305D01*
X607695Y962025D02*
X916305D01*
X962025Y607695D02*
Y916305D01*
X561975Y607695D02*
Y916305D01*
D80*
X816300Y550140D02*
Y662790D01*
X656900Y550140D02*
X816300D01*
X656900D02*
Y662790D01*
X816300D01*
X736600Y619840D02*
Y629840D01*
X731600Y624840D02*
X741600D01*
X648620Y646220D02*
Y715220D01*
X568620Y646220D02*
Y715220D01*
X648620D01*
X568620Y646220D02*
X648620D01*
X585160Y755760D02*
X628960D01*
X585160Y737760D02*
Y755760D01*
X628960Y737760D02*
Y755760D01*
X585160Y737760D02*
X628960D01*
X815442Y745272D02*
Y879772D01*
X680942D02*
X815442D01*
X680942Y745272D02*
Y879772D01*
Y745272D02*
X815442D01*
X776380Y623660D02*
X849380D01*
Y563160D02*
Y623660D01*
X776380Y563160D02*
X849380D01*
X776380D02*
Y623660D01*
X899070Y712880D02*
Y785880D01*
X959570D01*
Y712880D02*
Y785880D01*
X899070Y712880D02*
X959570D01*
X899070Y797970D02*
Y870970D01*
X959570D01*
Y797970D02*
Y870970D01*
X899070Y797970D02*
X959570D01*
%TF.MD5,829ed5ca2785f28ad58a48487406a91d*%
M02*
