%TF.GenerationSoftware,Altium Limited,Altium Designer,21.3.2 (30)*%
G04 Layer_Color=2752767*
%FSLAX44Y44*%
%MOMM*%
%TF.SameCoordinates,DF9C5644-7730-4CB0-946D-AD2690A7FF42*%
%TF.FilePolarity,Positive*%
%TF.FileFunction,Drawing*%
%TF.Part,Single*%
G01*
G75*
%TA.AperFunction,NonConductor*%
%ADD65C,0.1270*%
%ADD89C,0.1693*%
D65*
X718820Y647460D02*
Y657620D01*
X728980D01*
Y647460D01*
X718820D01*
X668020D02*
Y657620D01*
X678180D01*
Y647460D01*
X668020D01*
X693420D02*
Y657620D01*
X703580D01*
Y647460D01*
X693420D01*
X744220D02*
Y657620D01*
X754380D01*
Y647460D01*
X744220D01*
X769620D02*
Y657620D01*
X779780D01*
Y647460D01*
X769620D01*
X795020D02*
Y657620D01*
X805180D01*
Y647460D01*
X795020D01*
X712724Y902462D02*
X707644Y912622D01*
X717804D01*
X712724Y902462D01*
X764032Y895096D02*
X758952Y905256D01*
X769112D01*
X764032Y895096D01*
X762000Y903986D02*
X756920Y914146D01*
X767080D01*
X762000Y903986D01*
X762508Y912368D02*
X757428Y922528D01*
X767588D01*
X762508Y912368D01*
X676341Y668427D02*
X671261Y678587D01*
X681421D01*
X676341Y668427D01*
X662371Y610769D02*
X657291Y620929D01*
X667451D01*
X662371Y610769D01*
X755335Y620929D02*
X750255Y631089D01*
X760415D01*
X755335Y620929D01*
X812485Y622961D02*
X807405Y633121D01*
X817565D01*
X812485Y622961D01*
X844997Y604927D02*
X839917Y615087D01*
X850077D01*
X844997Y604927D01*
X848299Y678841D02*
X843219Y689001D01*
X853379D01*
X848299Y678841D01*
X825246Y658622D02*
X820166Y668782D01*
X830326D01*
X825246Y658622D01*
X936945Y750977D02*
X931865Y761137D01*
X942025D01*
X936945Y750977D01*
X907633Y857784D02*
X902553Y867944D01*
X912713D01*
X907633Y857784D01*
X931357Y834797D02*
X926277Y844957D01*
X936437D01*
X931357Y834797D01*
X662432Y768096D02*
X657352Y778256D01*
X667512D01*
X662432Y768096D01*
X657098Y775970D02*
X652018Y786130D01*
X662178D01*
X657098Y775970D01*
X753364Y890016D02*
X748284Y900176D01*
X758444D01*
X753364Y890016D01*
X725424Y918972D02*
X720344Y929132D01*
X730504D01*
X725424Y918972D01*
X720090Y905510D02*
X715010Y915670D01*
X725170D01*
X720090Y905510D01*
X768410Y724424D02*
X763330Y734584D01*
X773490D01*
X768410Y724424D01*
X698500Y688340D02*
X693420Y698500D01*
X703580D01*
X698500Y688340D01*
X772820Y718210D02*
X767740Y728370D01*
X777900D01*
X772820Y718210D01*
X811510Y881360D02*
X806430Y891520D01*
X816590D01*
X811510Y881360D01*
X831850Y684530D02*
X826770Y694690D01*
X836930D01*
X831850Y684530D01*
X829135Y676995D02*
X824054Y687155D01*
X834214D01*
X829135Y676995D01*
X955109Y703485D02*
X950029Y713645D01*
X960189D01*
X955109Y703485D01*
X844619Y735235D02*
X839539Y745395D01*
X849699D01*
X844619Y735235D01*
X664210Y830580D02*
X659130Y840740D01*
X669290D01*
X664210Y830580D01*
X651510Y803910D02*
X646430Y814070D01*
X656590D01*
X651510Y803910D01*
X666750Y811530D02*
X661670Y821690D01*
X671830D01*
X666750Y811530D01*
X660114Y805803D02*
X655034Y815963D01*
X665194D01*
X660114Y805803D01*
X651333Y795490D02*
X646253Y805650D01*
X656413D01*
X651333Y795490D01*
X859790Y858520D02*
X854710Y868680D01*
X864870D01*
X859790Y858520D01*
X864870Y814070D02*
X859790Y824230D01*
X869950D01*
X864870Y814070D01*
X842010Y811530D02*
X836930Y821690D01*
X847090D01*
X842010Y811530D01*
X818919Y823999D02*
X813839Y834159D01*
X823999D01*
X818919Y823999D01*
X721360Y661670D02*
X716280Y671830D01*
X726440D01*
X721360Y661670D01*
X734060Y675640D02*
X728980Y685800D01*
X739140D01*
X734060Y675640D01*
X849428Y839470D02*
X844348Y849630D01*
X854508D01*
X849428Y839470D01*
X854710Y876300D02*
X849630Y886460D01*
X859790D01*
X854710Y876300D01*
X740410Y629920D02*
X735330Y640080D01*
X745490D01*
X740410Y629920D01*
X793750Y742950D02*
X788670Y753110D01*
X798830D01*
X793750Y742950D01*
X822960Y871220D02*
X817880Y881380D01*
X828040D01*
X822960Y871220D01*
X803910Y883920D02*
X798830Y894080D01*
X808990D01*
X803910Y883920D01*
X768350Y919480D02*
X763270Y929640D01*
X773430D01*
X768350Y919480D01*
X637540Y642620D02*
X632460Y652780D01*
X642620D01*
X637540Y642620D01*
X638810Y760730D02*
X633730Y770890D01*
X643890D01*
X638810Y760730D01*
X779780Y698500D02*
X774700Y708660D01*
X784860D01*
X779780Y698500D01*
X808990Y676910D02*
X803910Y687070D01*
X814070D01*
X808990Y676910D01*
X773430Y662940D02*
X768350Y673100D01*
X778510D01*
X773430Y662940D01*
X648970Y830580D02*
X643890Y840740D01*
X654050D01*
X648970Y830580D01*
X786130Y885190D02*
X781050Y895350D01*
X791210D01*
X786130Y885190D01*
X610870Y742950D02*
X605790Y753110D01*
X615950D01*
X610870Y742950D01*
X637540Y779780D02*
X632460Y789940D01*
X642620D01*
X637540Y779780D01*
X643936Y767120D02*
X638856Y777280D01*
X649016D01*
X643936Y767120D01*
X651555Y767249D02*
X646475Y777409D01*
X656635D01*
X651555Y767249D01*
X656590Y789100D02*
X651510Y799260D01*
X661670D01*
X656590Y789100D01*
X787400Y637540D02*
X782320Y647700D01*
X792480D01*
X787400Y637540D01*
X774700Y670560D02*
X769620Y680720D01*
X779780D01*
X774700Y670560D01*
X946150Y632460D02*
X941070Y642620D01*
X951230D01*
X946150Y632460D01*
X930910Y706120D02*
X925830Y716280D01*
X935990D01*
X930910Y706120D01*
Y671830D02*
X925830Y681990D01*
X935990D01*
X930910Y671830D01*
X647700Y880110D02*
X642620Y890270D01*
X652780D01*
X647700Y880110D01*
X701040Y925830D02*
X695960Y935990D01*
X706120D01*
X701040Y925830D01*
X623570Y765810D02*
X618490Y775970D01*
X628650D01*
X623570Y765810D01*
X711200Y935990D02*
X706120Y946150D01*
X716280D01*
X711200Y935990D01*
X610870Y871220D02*
X605790Y881380D01*
X615950D01*
X610870Y871220D01*
X591820Y783590D02*
X586740Y793750D01*
X596900D01*
X591820Y783590D01*
Y842010D02*
X586740Y852170D01*
X596900D01*
X591820Y842010D01*
X654050Y864870D02*
X648970Y875030D01*
X659130D01*
X654050Y864870D01*
X670560Y877570D02*
X665480Y887730D01*
X675640D01*
X670560Y877570D01*
X692150Y868680D02*
X687070Y878840D01*
X697230D01*
X692150Y868680D01*
X671830Y853440D02*
X666750Y863600D01*
X676910D01*
X671830Y853440D01*
X782320Y772160D02*
X777240Y782320D01*
X787400D01*
X782320Y772160D01*
X765810D02*
X760730Y782320D01*
X770890D01*
X765810Y772160D01*
X748030D02*
X742950Y782320D01*
X753110D01*
X748030Y772160D01*
X730250D02*
X725170Y782320D01*
X735330D01*
X730250Y772160D01*
X712470D02*
X707390Y782320D01*
X717550D01*
X712470Y772160D01*
X782320Y788670D02*
X777240Y798830D01*
X787400D01*
X782320Y788670D01*
X765810D02*
X760730Y798830D01*
X770890D01*
X765810Y788670D01*
X748030D02*
X742950Y798830D01*
X753110D01*
X748030Y788670D01*
X730250D02*
X725170Y798830D01*
X735330D01*
X730250Y788670D01*
X712470D02*
X707390Y798830D01*
X717550D01*
X712470Y788670D01*
X782320Y806450D02*
X777240Y816610D01*
X787400D01*
X782320Y806450D01*
X765810D02*
X760730Y816610D01*
X770890D01*
X765810Y806450D01*
X748030D02*
X742950Y816610D01*
X753110D01*
X748030Y806450D01*
X730250D02*
X725170Y816610D01*
X735330D01*
X730250Y806450D01*
X712470D02*
X707390Y816610D01*
X717550D01*
X712470Y806450D01*
X782320Y824230D02*
X777240Y834390D01*
X787400D01*
X782320Y824230D01*
X765810D02*
X760730Y834390D01*
X770890D01*
X765810Y824230D01*
X748030D02*
X742950Y834390D01*
X753110D01*
X748030Y824230D01*
X730250D02*
X725170Y834390D01*
X735330D01*
X730250Y824230D01*
X712470D02*
X707390Y834390D01*
X717550D01*
X712470Y824230D01*
X782320Y840740D02*
X777240Y850900D01*
X787400D01*
X782320Y840740D01*
X765810D02*
X760730Y850900D01*
X770890D01*
X765810Y840740D01*
X748030D02*
X742950Y850900D01*
X753110D01*
X748030Y840740D01*
X730250D02*
X725170Y850900D01*
X735330D01*
X730250Y840740D01*
X712470D02*
X707390Y850900D01*
X717550D01*
X712470Y840740D01*
X810260Y905510D02*
X805180Y915670D01*
X815340D01*
X810260Y905510D01*
X833120Y901700D02*
X828040Y911860D01*
X838200D01*
X833120Y901700D01*
X853440Y934720D02*
X848360Y944880D01*
X858520D01*
X853440Y934720D01*
X657860Y688340D02*
X652780Y698500D01*
X662940D01*
X657860Y688340D01*
X635000Y685800D02*
X629920Y695960D01*
X640080D01*
X635000Y685800D01*
X615950Y683260D02*
X610870Y693420D01*
X621030D01*
X615950Y683260D01*
X690880Y730250D02*
X685800Y740410D01*
X695960D01*
X690880Y730250D01*
X670560Y711200D02*
X665480Y721360D01*
X675640D01*
X670560Y711200D01*
X927100Y787400D02*
X922020Y797560D01*
X932180D01*
X927100Y787400D01*
X922020Y824230D02*
X916940Y834390D01*
X927100D01*
X922020Y824230D01*
X864562Y641042D02*
X859482Y651202D01*
X869642D01*
X864562Y641042D01*
X869950Y646430D02*
X864870Y656590D01*
X875030D01*
X869950Y646430D01*
X825500Y690880D02*
X820420Y701040D01*
X830580D01*
X825500Y690880D01*
X855980Y594360D02*
X850900Y604520D01*
X861060D01*
X855980Y594360D01*
X807720Y591820D02*
X802640Y601980D01*
X812800D01*
X807720Y591820D01*
X905510Y683260D02*
X900430Y693420D01*
X910590D01*
X905510Y683260D01*
X891540Y685800D02*
X886460Y695960D01*
X896620D01*
X891540Y685800D01*
X894080Y715010D02*
X889000Y725170D01*
X899160D01*
X894080Y715010D01*
X890270Y732790D02*
X885190Y742950D01*
X895350D01*
X890270Y732790D01*
X885190Y745490D02*
X880110Y755650D01*
X890270D01*
X885190Y745490D01*
X868680Y770890D02*
X863600Y781050D01*
X873760D01*
X868680Y770890D01*
X853440D02*
X848360Y781050D01*
X858520D01*
X853440Y770890D01*
X830580Y697230D02*
X825500Y707390D01*
X835660D01*
X830580Y697230D01*
X829310Y720090D02*
X824230Y730250D01*
X834390D01*
X829310Y720090D01*
Y739140D02*
X824230Y749300D01*
X834390D01*
X829310Y739140D01*
X808990Y693420D02*
X803910Y703580D01*
X814070D01*
X808990Y693420D01*
X662940Y594360D02*
X657860Y604520D01*
X668020D01*
X662940Y594360D01*
X635000Y631190D02*
X629920Y641350D01*
X640080D01*
X635000Y631190D01*
X943610Y701040D02*
X938530Y711200D01*
X948690D01*
X943610Y701040D01*
X919480D02*
X914400Y711200D01*
X924560D01*
X919480Y701040D01*
X829310Y751840D02*
X824230Y762000D01*
X834390D01*
X829310Y751840D01*
X825611Y764931D02*
X820531Y775091D01*
X830691D01*
X825611Y764931D01*
X654050Y848360D02*
X648970Y858520D01*
X659130D01*
X654050Y848360D01*
X683260Y877570D02*
X678180Y887730D01*
X688340D01*
X683260Y877570D01*
X753110Y937260D02*
X748030Y947420D01*
X758190D01*
X753110Y937260D01*
X746850Y932180D02*
X741770Y942340D01*
X751930D01*
X746850Y932180D01*
X668020Y840740D02*
X662940Y850900D01*
X673100D01*
X668020Y840740D01*
X744220Y701040D02*
X739140Y711200D01*
X749300D01*
X744220Y701040D01*
X821515Y800275D02*
X816435Y810435D01*
X826595D01*
X821515Y800275D01*
X651510Y637540D02*
X646430Y647700D01*
X656590D01*
X651510Y637540D01*
X744220Y668020D02*
X739140Y678180D01*
X749300D01*
X744220Y668020D01*
Y687070D02*
X739140Y697230D01*
X749300D01*
X744220Y687070D01*
D89*
X614680Y609600D02*
G03*
X614680Y609600I-5080J0D01*
G01*
X919480D02*
G03*
X919480Y609600I-5080J0D01*
G01*
Y914400D02*
G03*
X919480Y914400I-5080J0D01*
G01*
X614680D02*
G03*
X614680Y914400I-5080J0D01*
G01*
%TF.MD5,cf3d49a4247ece0ca9705836c2e288c9*%
M02*
