%TF.GenerationSoftware,Altium Limited,Altium Designer,21.3.2 (30)*%
G04 Layer_Color=16711935*
%FSLAX44Y44*%
%MOMM*%
%TF.SameCoordinates,DF9C5644-7730-4CB0-946D-AD2690A7FF42*%
%TF.FilePolarity,Positive*%
%TF.FileFunction,Other,Mechanical_13*%
%TF.Part,Single*%
G01*
G75*
%TA.AperFunction,NonConductor*%
%ADD43C,0.2000*%
%ADD44C,0.1000*%
%ADD64C,0.3000*%
%ADD65C,0.1270*%
D43*
X581000Y768440D02*
X615000D01*
X581000D02*
Y868440D01*
X615000D01*
Y768440D02*
Y868440D01*
X911540Y823990D02*
X945540D01*
Y723990D02*
Y823990D01*
X911540Y723990D02*
X945540D01*
X911540D02*
Y823990D01*
X845060Y715410D02*
X877060D01*
Y765410D01*
X845060D02*
X877060D01*
X845060Y715410D02*
Y765410D01*
X579550Y867600D02*
X620050D01*
Y760100D02*
Y867600D01*
X579550Y760100D02*
X620050D01*
X579550D02*
Y867600D01*
X657390Y611520D02*
X757390D01*
Y577520D02*
Y611520D01*
X657390Y577520D02*
X757390D01*
X657390D02*
Y611520D01*
D44*
X752500Y554140D02*
Y612140D01*
X746100Y554140D02*
Y612140D01*
X749300Y552140D02*
X752500Y554140D01*
X746100D02*
X749300Y552140D01*
X669900Y554140D02*
X673100Y552140D01*
X676300Y554140D01*
X669900D02*
Y612140D01*
X676300Y554140D02*
Y612140D01*
X701700Y554140D02*
Y612140D01*
X695300Y554140D02*
Y612140D01*
X698500Y552140D02*
X701700Y554140D01*
X695300D02*
X698500Y552140D01*
X812800Y612140D02*
Y637540D01*
X660400Y612140D02*
X812800D01*
X660400D02*
Y637540D01*
X812800D01*
X720700Y554140D02*
X723900Y552140D01*
X727100Y554140D01*
X720700D02*
Y612140D01*
X727100Y554140D02*
Y612140D01*
X771500Y554140D02*
X774700Y552140D01*
X777900Y554140D01*
X771500D02*
Y612140D01*
X777900Y554140D02*
Y612140D01*
X803300Y554140D02*
Y612140D01*
X796900Y554140D02*
Y612140D01*
X800100Y552140D02*
X803300Y554140D01*
X796900D02*
X800100Y552140D01*
X627120Y647220D02*
Y714220D01*
X590120Y647220D02*
Y714220D01*
X627120D01*
X590120Y647220D02*
X627120D01*
X593610Y754760D02*
X620510D01*
X593610Y738760D02*
Y754760D01*
X620510Y738760D02*
Y754760D01*
X593610Y738760D02*
X620510D01*
X830950Y785290D02*
X845450D01*
X830950Y807290D02*
X845450D01*
Y785290D02*
Y807290D01*
X830950Y785290D02*
Y807290D01*
X853580Y803670D02*
X871080D01*
X853580Y837170D02*
X871080D01*
Y803670D02*
Y837170D01*
X853580Y803670D02*
Y837170D01*
X793192Y762522D02*
X798192Y767522D01*
Y762522D02*
Y862522D01*
X698192D02*
X798192D01*
X698192Y762522D02*
Y862522D01*
Y762522D02*
X798192D01*
D64*
X789380Y617260D02*
G03*
X789380Y617260I-1000J0D01*
G01*
X906470Y724880D02*
G03*
X906470Y724880I-1000J0D01*
G01*
Y809970D02*
G03*
X906470Y809970I-1000J0D01*
G01*
D65*
X782880Y610160D02*
X842880D01*
Y567660D02*
Y610160D01*
X782880Y567660D02*
X842880D01*
X782880D02*
Y610160D01*
X912570Y719380D02*
Y779380D01*
X955070D01*
Y719380D02*
Y779380D01*
X912570Y719380D02*
X955070D01*
X912570Y804470D02*
Y864470D01*
X955070D01*
Y804470D02*
Y864470D01*
X912570Y804470D02*
X955070D01*
%TF.MD5,a88567d2e5da8acd5e41478941f9b61d*%
M02*
