%TF.GenerationSoftware,Altium Limited,Altium Designer,21.3.2 (30)*%
G04 Layer_Color=255*
%FSLAX44Y44*%
%MOMM*%
%TF.SameCoordinates,DF9C5644-7730-4CB0-946D-AD2690A7FF42*%
%TF.FilePolarity,Positive*%
%TF.FileFunction,Pads,Top*%
%TF.Part,Single*%
G01*
G75*
%TA.AperFunction,SMDPad,CuDef*%
%ADD10R,1.5000X1.5000*%
%ADD11R,1.3000X1.6000*%
%ADD12R,1.3000X1.0000*%
%ADD13R,0.3000X1.4750*%
%ADD14R,1.4750X0.3000*%
%ADD15R,1.5240X1.5240*%
%ADD16R,1.5000X1.5000*%
%ADD17R,2.7000X1.0000*%
%ADD18R,1.7000X0.6000*%
%ADD19R,1.2000X1.8000*%
%ADD20R,0.6000X1.5500*%
%ADD21R,0.6000X1.5500*%
%ADD22R,1.2000X1.8000*%
%ADD23R,1.8000X1.2000*%
%ADD24R,1.5500X0.6000*%
%ADD25R,1.0000X1.3000*%
%TA.AperFunction,ComponentPad*%
%ADD29C,1.6500*%
%ADD30R,1.6500X1.6500*%
%TA.AperFunction,ViaPad*%
%ADD31C,5.9944*%
D10*
X943610Y693140D02*
D03*
Y658140D02*
D03*
X919480Y693140D02*
D03*
Y658140D02*
D03*
D11*
X849560Y721410D02*
D03*
Y759410D02*
D03*
X872560D02*
D03*
Y721410D02*
D03*
D12*
X853340Y816490D02*
D03*
X853440Y834390D02*
D03*
X830580D02*
D03*
X830480Y816490D02*
D03*
X650340Y762120D02*
D03*
X650240Y744220D02*
D03*
X670660Y762120D02*
D03*
X670560Y744220D02*
D03*
D13*
X785692Y755142D02*
D03*
X780692D02*
D03*
X775692D02*
D03*
X770692D02*
D03*
X765692D02*
D03*
X760692D02*
D03*
X755692D02*
D03*
X750692D02*
D03*
X745692D02*
D03*
X740692D02*
D03*
X735692D02*
D03*
X730692D02*
D03*
X725692D02*
D03*
X720692D02*
D03*
X715692D02*
D03*
X710692D02*
D03*
Y869902D02*
D03*
X715692D02*
D03*
X720692D02*
D03*
X725692D02*
D03*
X730692D02*
D03*
X735692D02*
D03*
X740692D02*
D03*
X745692D02*
D03*
X750692D02*
D03*
X755692D02*
D03*
X760692D02*
D03*
X765692D02*
D03*
X770692D02*
D03*
X775692D02*
D03*
X780692D02*
D03*
X785692D02*
D03*
D14*
X690812Y775022D02*
D03*
Y780022D02*
D03*
Y785022D02*
D03*
Y790022D02*
D03*
Y795022D02*
D03*
Y800022D02*
D03*
Y805022D02*
D03*
Y810022D02*
D03*
Y815022D02*
D03*
Y820022D02*
D03*
Y825022D02*
D03*
Y830022D02*
D03*
Y835022D02*
D03*
Y840022D02*
D03*
Y845022D02*
D03*
Y850022D02*
D03*
X805572D02*
D03*
Y845022D02*
D03*
Y840022D02*
D03*
Y835022D02*
D03*
Y830022D02*
D03*
Y825022D02*
D03*
Y820022D02*
D03*
Y815022D02*
D03*
Y810022D02*
D03*
Y805022D02*
D03*
Y800022D02*
D03*
Y795022D02*
D03*
Y790022D02*
D03*
Y785022D02*
D03*
Y780022D02*
D03*
Y775022D02*
D03*
D15*
X601980Y671830D02*
D03*
X635000D02*
D03*
D16*
X635990Y703580D02*
D03*
X600990D02*
D03*
D17*
X590550Y863600D02*
D03*
Y764100D02*
D03*
D18*
X622550Y845100D02*
D03*
Y832600D02*
D03*
Y820100D02*
D03*
Y807600D02*
D03*
Y795100D02*
D03*
Y782600D02*
D03*
D19*
X840880Y574660D02*
D03*
X784880D02*
D03*
D20*
X797880Y613410D02*
D03*
X807880D02*
D03*
X817880D02*
D03*
X827880D02*
D03*
D21*
X672390Y616280D02*
D03*
X682390D02*
D03*
X692390D02*
D03*
X702390D02*
D03*
X712390D02*
D03*
X722390D02*
D03*
X732390D02*
D03*
X742390D02*
D03*
D22*
X659390Y577520D02*
D03*
X755390D02*
D03*
D23*
X948070Y777380D02*
D03*
Y721380D02*
D03*
Y862470D02*
D03*
Y806470D02*
D03*
D24*
X909320Y734380D02*
D03*
Y744380D02*
D03*
Y754380D02*
D03*
Y764380D02*
D03*
Y819470D02*
D03*
Y829470D02*
D03*
Y839470D02*
D03*
Y849470D02*
D03*
D25*
X855980Y698500D02*
D03*
X873880Y698400D02*
D03*
X840620Y788770D02*
D03*
X858520Y788670D02*
D03*
X701040Y915670D02*
D03*
X683140Y915770D02*
D03*
X701040Y895350D02*
D03*
X683140Y895450D02*
D03*
X777120Y906880D02*
D03*
X795020Y906780D02*
D03*
X777240Y890270D02*
D03*
X795140Y890170D02*
D03*
D29*
X723900Y652540D02*
D03*
X698500D02*
D03*
X749300D02*
D03*
X774700D02*
D03*
X800100D02*
D03*
D30*
X673100D02*
D03*
D31*
X609600Y609600D02*
D03*
X914400D02*
D03*
Y914400D02*
D03*
X609600D02*
D03*
%TF.MD5,9b939c5bdacf086ee557cdfeeaee653e*%
M02*
